<mxfile host="65bd71144e">
    <diagram id="IHWe7paLDQj2oigPA1aT" name="Data Stack">
        <mxGraphModel dx="1537" dy="771" grid="1" gridSize="10" guides="1" tooltips="1" connect="1" arrows="1" fold="1" page="1" pageScale="1" pageWidth="1100" pageHeight="850" background="#ffffff" math="0" shadow="0">
            <root>
                <mxCell id="0"/>
                <mxCell id="1" parent="0"/>
                <mxCell id="9" style="edgeStyle=none;html=1;entryX=0;entryY=0.5;entryDx=0;entryDy=0;fontSize=18;fontColor=#666666;" edge="1" parent="1" source="2" target="3">
                    <mxGeometry relative="1" as="geometry"/>
                </mxCell>
                <mxCell id="47" style="edgeStyle=none;html=1;entryX=0;entryY=0.5;entryDx=0;entryDy=0;fontSize=18;fontColor=#666666;exitX=1.005;exitY=0.888;exitDx=0;exitDy=0;exitPerimeter=0;" edge="1" parent="1" source="3" target="19">
                    <mxGeometry relative="1" as="geometry"/>
                </mxCell>
                <mxCell id="3" value="&lt;b style=&quot;font-size: 18px;&quot;&gt;Data Ingestion Layer&lt;/b&gt;" style="rounded=1;whiteSpace=wrap;html=1;labelPosition=center;verticalLabelPosition=middle;align=center;verticalAlign=middle;horizontal=0;fillColor=#dae8fc;strokeColor=#6c8ebf;fontColor=#666666;fontSize=18;" vertex="1" parent="1">
                    <mxGeometry x="230" y="20" width="70" height="620" as="geometry"/>
                </mxCell>
                <mxCell id="37" style="edgeStyle=none;html=1;entryX=0;entryY=0.75;entryDx=0;entryDy=0;fontSize=18;fontColor=#666666;exitX=1;exitY=0.75;exitDx=0;exitDy=0;" edge="1" parent="1" source="16" target="17">
                    <mxGeometry relative="1" as="geometry"/>
                </mxCell>
                <mxCell id="35" style="edgeStyle=none;html=1;fontSize=18;fontColor=#666666;entryX=0.756;entryY=1.008;entryDx=0;entryDy=0;exitX=0.486;exitY=0.003;exitDx=0;exitDy=0;entryPerimeter=0;exitPerimeter=0;" edge="1" parent="1" source="17" target="14">
                    <mxGeometry relative="1" as="geometry">
                        <mxPoint x="895" y="100" as="targetPoint"/>
                    </mxGeometry>
                </mxCell>
                <mxCell id="36" style="edgeStyle=none;html=1;entryX=1;entryY=0.25;entryDx=0;entryDy=0;fontSize=18;fontColor=#666666;exitX=0;exitY=0.25;exitDx=0;exitDy=0;" edge="1" parent="1" source="17" target="16">
                    <mxGeometry relative="1" as="geometry"/>
                </mxCell>
                <mxCell id="38" value="" style="group" vertex="1" connectable="0" parent="1">
                    <mxGeometry x="330" y="500" width="740" height="140" as="geometry"/>
                </mxCell>
                <mxCell id="19" value="&lt;b style=&quot;font-size: 18px;&quot;&gt;Data Storage Layer&lt;/b&gt;" style="rounded=1;whiteSpace=wrap;html=1;labelPosition=center;verticalLabelPosition=middle;align=center;verticalAlign=top;horizontal=1;fillColor=#dae8fc;strokeColor=#6c8ebf;fontColor=#666666;fontSize=18;" vertex="1" parent="38">
                    <mxGeometry width="740" height="140" as="geometry"/>
                </mxCell>
                <mxCell id="29" value="" style="shape=image;verticalLabelPosition=bottom;labelBackgroundColor=default;verticalAlign=top;aspect=fixed;imageAspect=0;image=data:image/png,iVBORw0KGgoAAAANSUhEUgAAAVMAAACUCAMAAAAZDzr+AAABMlBMVEX///+MMiPhU0MgHB0AAADjUkKILh7ysKngTDpeHxkIAAAaFReJMSL87uwdGRqILyAWERKVNSZDQULaUEC/vr75+fkPBwljYWK/ZFiHhYXjXU2VlJRPTE3CWEqbRTju7u7EY1clISI1MzOcVEno6OjX19fh4eG0QTKxsLDLysqfnp6IJxSFHAB9e3xdWlunpqbFxcWJiYkvLy/t4d/qkIfjXE3dX1HCXE9tbW3la17fRDHWu7fzwr353tyGIgviz8z20MzGSDmjTkLxqaGqcGjjtK+7jYbePynqjIOzf3efX1bAT0HrgnfUtbDGn5p7Ni5tNzOKQznVYVWCNCmES0NtNC50LyhhLCinVk6wUUiOTUVlKCG6aV6wSDrPZVilOyzUg3rQkYnQb2TvnpXho5vmdWmkViy4AAAQkUlEQVR4nO2dC1vTSBfHe5nWbgIhhiS1tNvQ0tZe6BXBAL6g6OsK4iqirrrr7ssi3/8rvJlkzmRyaUnaiBHzf3weyW3S/HLmzJkzkySVSpQoUaIwWv7v8vf+CbdMy883f917kFCNTlvPe738eq5QePCf7/1Tbom2jtO9dNpgmskUMi8Sqotr63m6l08TpplcIZd4gAW1/PzAsNE0ZWrI8AAJ1fm1dbxJiDJMDaq/JR5gTll+1IepQTWXUJ1D2I+m01OYYqpJDBBSOHpKp2cwNf1qQjW4tp5vuoj6ME38ahhpGwduor5MDarbSQgQTNpG3ofpQx+muYRpQPkz9bPT3FrCNJgSptErRN1PmAbUcmKnkSthGr0SptErYRq9EqbRK4mlolfCNHolTOfUf6bTiIjpz4b78OTl9tXlFK6LM1W29o837p3+TJnAw2e93stcrrC3dnr5eFlxb16MqbL86vgkvdnL3/uJxgIOn2320iu/mkPLBtfc1dNHTqwLMN169Xxjc9MavL6XyxQKP0XW+vDEzOFbTC0whb3fdi8f2XTmZHr46ji9edCDYzFTPBZw+vjmL/JmdULGmRimFtdCbufBI8uowjPdOvz9JN2zedpM8bjVrse73C7BVbuYEnvN7D54tKwoYZgazdHzk+rBQd59DDA1qN7yCACu2Icp4VrYfXAUlGlm5/ikZ7hPn/0Tpg6u29WVoHa6k/bDmTD1aC0E0+o0pCGZNuVhf1DUS+3WjJ20jiyPmo6jZLk5Zc+yPqhLg6Hv5tnSmqPRqNOYuUuHOXMsmTaGEo+QKoqiimoDmW3SZMnU2PizqU9EYy9hQK5FaUtZhLisVHa3ga2+sScnijwvctlBh900lPzE3EilXakLqqryk0pbY4+Ui1iDMiaq13kOoazUVRZgmk8v3dvOeZu1SJh2J4gXskSCiCSGQpHjsVAjJfOqYO2gtvEWrWgdJfCo4jBurS+qtDhcns6YnKTyXqE23d4ZIFEwizUOrHdT7JEiFjJu2YQTyJmL2vxMP79+/+asum5gdYCNgqlSRDYBUzyyr6UomquQ1rH3EjjZICdx9AB1wlBr1jlXeWrNdgASn/XKZjpURccP0VPuI1GqUbf3QQMlPNN8+uzs9btfQG+Ofn2bsblGwFSpcFmPkOxiqjbrDAxB0FIVlaVWpOW1kJeaWKPeYTbTrvv2ooGX6YA9M779YZjmq2fn797/4tafn7+8JX4gAqZ9BKAM/0cNRAIIhGmtz15IVu23EbssqOAuFMreKI8C4kqBmNqF0iNR38105PglwkQJxHS7agSc1fOzd396gVr648PZwyfYESzMtAmeVJ0UixL1g9zIxbTmpMDXnQbFlcn+ZYJFQFJxQL2AgCgZw1uCbKbW2VoTAlxVayr8FGrDhKlYZL2DsW8nINPzzx/e/zGFJ+X6unpvdWGmugqWZLQzmjwRXIyYK+BVkWl6sFtFdKNYsXbXyJXzddxoN7qUDNjxeFIHwbmyfJZUGeKF1H6z1SwTW+UlzWnhxmqR4+iZuWEgppmXH99dR9Tyru82piINyJRYCyIMW8TMRPBjlKmAKn2dbUFQrdwuUsdRs3YfWSsEgbRKQ3LL0NB7anAnZpOHz12zfgs3NhebxMjhUNtroIos63BmUQ/GFLfua39/qk4l++bNh9efzzC4BZl2rB/O16ndilnHCmAq8NjSlIptH+ZdkKGqc2BqgsPMNWKMdIUt6jzhfpY5cnuILy+rjttFmXJmVNKFM1eCMSVcM9urOx+r5w4v8Mf7D2efz5eWZuIMzrRVN8J2pNpmNCQXNnEx5aw9qPsVSZQzsLYLKjm8JhjdABXR4ImQUMfuMzdqUNKAMCT4VcBPbD6rjhxMRRJjEEck1IMztcnu7Dz5tPH6T0PvPp+fV6+nGabua61WZ1jq0/iSWA8YBzAVIAKtkCuDaGsIPhBQtZpyt28TJMxV2vCDilDzRcK/qTpLTinAdOxgCttJjcpOwjK1uGK0238FphmGqVvANOtkSv0rOEFEGLc5h516BEz7rvUyrfnQvyAl0ZJTKR5aKZapkCVtVpfsX5uHKSF7LwzQ+ZhqrU7J6cRozA9MqJNTAjBtNDuS4Mu0ASEEBAzM3aI7gfNGLFOxCGeGu7IA0/VvyVRpyqXBJMuL0CS5mULdJdZBOwWyP9NGp61LtSzt+LuZ0pov0FQB8SqCQHeilJsMU+qZwa7jyVST+5KIVJG3w3APU7gSYFqZwbTRLtZVpPJMWO9iCl4Ymj4sEo/S1pEGAsSDEqY0gpDjzFSu4+vPOjTVTsl10sbah2l5gkRXcS6mEImyeYIUQSTQsC41JLXbikqAKfjfODMd20kPu8t/HdPpdqpU7DwIT7v8TqbgKJman0pBvGnXffCYFkY30yjq/jdqo2gORURoMtDBq83LVJPAU6qIk3S95tNGdWmbLzNrgSnvZVr2Y7qgneJ+lcF0aQnH+tEyBc8mcMW2pig05p+XqU7K4/l+U1PsloVh2qINF5MdTaXIWsaLDGfa6XxMzQT09vbq6tv19U//fFl9cv/+P3fvptPB2AZi2iCOVOCdMfy8TCHs5OskaVLxMFUGNLZwjI1Afs+OpSACjcSfmjBzmbd/P/zy5eiourSSz68s3c9Z61dXnzwx2JpkZ7ENxJQ2rZBRW5Ap8ZQCD51TL1Na8zl7xIRhxjAtO3pWC/rTty9ffvp4trSykjf+ETeKmTqgr5p2uyBTMFNAuCDTJmmTVHcO2mZKMwacK2SFvqbdj6LxacuPaSg7ze1Ul5Y80yAcTCna1bsLMW1Al5peH/SjXH3TgEyhVUGQ0lbq7jZKIuhoCSBa0+kIo28/aj47NZj6jEX7Mc1kFmQ6crQCzC8XeGUepiWHZaVsq6Q9SnA2RhxaLOoluUV9KoyJ2C4Bjh1EwtQH0TdhKruZguFmYYApHNO+mykNKyYWuxYz+mpOJ0BSibSOCu8yaciPk77WonX/pplCNjQ1hgE0yGLOaacQeNLeKanRzqFCsyQVSUP2VLSKdKHoli/TuNpph0bf1nV06CCfgLQ5mIJPhHsEI35QgTV2RNvGag3jg+GR7J9WA7eR+qHsVLFHdTQ8rWZiX7KqK+GZ0qyoik1P6TJWqXYZTi4JKi5NgT5cFrdwGhl9pGHZj8KUGeSRSv2KY8aCFWmHY0qTI4Ja7JYq7IQUs28/kymNGgRB75ahj0tDrh+G6ZBWTl5VzR9Na/88TCGtn8XjxWZ5Apgqj8dIKFOBx3OfeHoHrNLs8RSOg9GnOgQGizFduzmmSs3p4ATUtVyegBwNR1CmTcf0FDyrh3SbxCxupEymgtHaZytFXS9WeGSmBYGpIrmbMN4zWjhnG3WDTFMjjoUqGnHLyLxK6KyGzaGUHVDVSdNaI9bNxttgKqJav027Sq22LiBe4Ehp7MQ28/isZ/Za/O3UuN01pq03Z0kOkcDXIBgKypSD8so0IW3UYHMqo1GjRcmiqNWQa1apsW5YQXSOmtJnpmUI3IDJr7rz/GCnQvyYplpFkUOqqnLqpKsRLDXaP+zjTapqj24izlyGBH3HWuaytLyRJJrrEC9ZN0apoApwbHZ8noFROsxk6pGkciJvOFyVqzkmCw/IL4FulkzOHGh8/4aZGlTl4bhU6o7oCtmeTqrIlujVdazlhmuZndXbbHdLpbE961wZhXqYqDPU64iT+rLzKPgldMUIzhyAaeammf7oiqOd/uhK7DR6JXYavRKm0SthGr0SptErYRq9EqbRKwjTG8z13QrFkmljVO4XB/p45PtQtBL311TEkGmjLyAise9KGjW6+qBSKY6bceYaP6YdxEpwPG8/pusn8rTjv79ix1QGaBPyh52T0iSWtvcJp7gobky1GuZVxHk+pVXEf9sTGAd4Ue2PS+YfaI43RtyMgjH1mb77jZiWHCZYZNm18cLANFvTmCu+BcRAQZiuVfEsyBUnWC/TXBRMRQOWRJdaeBFS+hW8CR5GirOhBmCayW2/pbMlDeVdTM1Z03gSKp6FOl2BmDYRA9GQbtujuQlaJg17W8/zjTFREKYEm/H/jjWr93wpn1+5Tyf0GiyXrpvRG5CpWb+Z15+UjUXy4IdZ32kINXB42ngpGFOWLZ59vvP3+qcv9/8JMfM88JwJZ53Gy2QQE8dR9HUTpgEPPIfHQ+GYsnDX82GekAjD1B7cS2lNQ9afuqNZ6uOlmAb+czI1qD78Fs/ytF3+lFGnLcu2V7iFdvqtmJqdKGnqZls4CHA/2xwXxYxpyozmr2/QWwITBMRNcWPaN6G6Uye+u9Vj6k5jx7Rh5aRq3ZlUu66QK16al2mu8LAXDmrAHMoIciTFtt9mZdgelut4u+/mWCg0UxyiFgqZq9P/PdvIH/Tyvu+PXYBpqgUJKSNYanvfwW5tqZev8w7fUWGYmjTXdndPn955egfr69eLvzaO8j3/F/POyTSljG2qk6GLaoOkVfXY1vzgTLFtru2cXl5aNFkZZD9Wq5hsNEzxiyYGIrVV57tcW7V63UwHokFsLTUQUwPo7osHlx6arC4unlVnYg03xtdq1wnUuoed1jGjg1pcoQZi+u/XRzN5gh7d+Tcqpin8dl3SWPlss3Kp0aKITAGY4vxp9dnF12uAPr18sZPxfTR1TqZGr8pyrH6usxTjaCoYU6N171WPpnN9enm6u50r5Pwf952bKYkB/LpVLRTfzmkwphaUfG9p468LD1DMs0Be1RsxUytpWvPZoAziO3oSginh2mP8wNMHp7uFAvNK6UWZlnRdd3Tjzfbfb89+wGTLd1BIphZXIxw9ubh8cZVxvaJ7caYT5Bpk1iG7r+BMKhOsluwRgLhpDqYWod56weeIRZniEXzHKx/LYKcdpIrsCMDtslOCyP97Jwsy1d2xUwmYOob4Uu60f6wUM6Zdt/vEkb/1xjzkcAvmnJQftd3PFfZWQzC9ezCtLxWIqewa4+vYJDHECXWoTdfAVZw0iyn+klzm6vLxVvDvR+0cvjo+2vTlGuy5aGf/yIpPrRmTzqEqPENlEtPOKWSUPExxCurK+uJhqG9ypVLLW6+sNOAUprm96/L88EGSTp2J7LU641G7wYZYvo8ONw7yHqY4CbX79DFc+hzfi1YMrq6PxxGmucLOoxm/p2EmnVR93B2Wi84cijXjT29rLdmMsOJqpob2NzbzNlMD597e1Z3HrCnN+w3urVfH1c1NSFaZTHN7M4mmmDw/ZFDtXF/XuWXWl6W+u/ZPNnt5gynmuf3izmP39kW+b6rs//7M+nqkcUBu7+oaoimo8KA+m5Me2clqMsEvxjp8dvByr7Dz4o7vl3gX/Q6vtvX78UZ686FBNMhQp9LWzcm7Yn0wbnk3iXiLHtdxaFaHF/48saL4XrSydXhxvY3SM+KOaMvXX2qtaVt+KIVgun3LH9OJTCHaqIRpQM3b7iearoRp9EqYRq+EafRKmEavhGn0SphGr4Rp9EqYRq+EafRaPkqYRi3lZNML1Y9pbm83YRpU+1UPVS/T3N528GxeIhhhmcHUsNGEaEgp+2Q00JdprrAbKIefyCmDKjMOyjJNiC6g/TT1ADbT3F4mqfWLiPpVYJr40cWl7FuRlcU0F3AsNNFsWa0VZpr40eik7B8d9NYLhZ2EaJTar768bpZOotBKeqGJEiVKxOj/ihtQ4sqMPHIAAAAASUVORK5CYII=;" vertex="1" parent="38">
                    <mxGeometry x="201" y="42" width="160.34" height="70" as="geometry"/>
                </mxCell>
                <mxCell id="30" value="" style="shape=image;verticalLabelPosition=bottom;labelBackgroundColor=default;verticalAlign=top;aspect=fixed;imageAspect=0;image=data:image/jpeg,/9j/4AAQSkZJRgABAQAAAQABAAD/2wCEAAkGBxIHBhIRBxMVExUXFxgXFRcYGRcVFhkXFxYgGRgZFhcaICggGB4xHhwfIT0kJikrLjE6HyAzODUvQykuLisBCgoKDg0OGxAQGi0lICUwLS0tLzAtLS0tLSstLS0tLS0rLS0tLS0tLy0tLS0tLS0tLS0tLS0tLS0tLS0tLS0tLf/AABEIAJoBSAMBEQACEQEDEQH/xAAbAAEAAgMBAQAAAAAAAAAAAAAABQYBAwQCB//EAD8QAAICAQMCAwQHBAkEAwAAAAECAAMEBRESBiETMUEHIlFhFBUyU4GS0SNCcZEWUmJygpOhorFDpLLBM1Rz/8QAGwEBAAIDAQEAAAAAAAAAAAAAAAMEAQIFBgf/xAAxEQEAAgIBAwMBBgUFAQAAAAAAAQIDEQQFEiETMUFRBhQiYXGhFVKBkbEkMkLB0SP/2gAMAwEAAhEDEQA/APuMBAQMbQMwEBAQEBAQEBAQEBAQEBAQEBAQEBAQEBAQEBAQEBAQEBAQEBAQEBAQEBAQEBAQEBAQEBAQEBAQEBAQEBAQEBAQEBAQEBAQEBAQEBAQEBAQEBAQEBAQEBAQEBAQEBAQEBAQEBAQEBAQEBAQEBAQEBAQEBAQEBAQEBAQEBAQEBAQEBAQEBAQEBAQEBAQEBAQEBAQEBAQEBAQEBAQEBAQEBAQEBAQEBAQEBAQEAewgY5QG8DMBAQEBAQEBAQEBAQEBAQEBAQEBAQEBAQEBAQEBAQEBAQEBAQExsY3mRF65qteDVws5s9gYJXWN7W2HcqCQAB/WYgDtue4ml8laR3WnwR7q3p+D9Y4Ktqbtv6Y6WEU1j+qxRv27fFnJ3O5AE811PrfZWaYp8p6Y/mW5dJXDHPQm+juPILuam+VlW/Fh8+zD0InI4nXuRiyf/Wdx+aS2KPhL6V1At9brqa/R7a052qzApwHnYj+TJ8+xHbcDee24vKx8infjncKtomPdIabqdWqY/iYLh132PYggj0ZWAKn5ESxExPsw695kZgICAgIGN4DeBmAgICAgICAgICAgICAgICAgICAgICAgICAgVPXerjpeSqCnf8AaKrMTsFrZyps2AO/2XbbsAqMWI7A6WtETFfqQ5snNbVsNsnPe2rF25U01Ma7rl3917XUhhy7ca1I7Ect9+K0c3PpTJGKPdvFNxtowum6sSmzeutLb9vHKDsFH/SDHu4HkWPdjue3YDzXV+q29XsrPiP8psdPG0jicMez6PSoUJWhUDsNiWXt+WcHLF709e07mZSx9HNVVkprIFZqGKtfEJxPMt22PLfb4jbb4efpLa/Htg8xPqTPuxqd/k4MrQRn9TC7NBKCtlVObFdwyEMF8l8v59/QGX8PUowcLsxT+JpNd28ql1bmZWD7RcfG0bIsoryFRrVrIG/BSC3cHvwUDf5Cep+zmS3IwRFvqq8q3pxNoWbQMq3H6wqrys25qxRbY4usTiTyVKx5D1LH/DPQcjFGOdQqcTPbLWZsv/1pR99V+df1lZbY+tKPvqvzr+sDP1pR99V+df1ge6c2q8nwLEbbueLKdh89jA0nWcYHvkU/5ifrA+Xe17rO7F1XBxulskK1hPiNWUf7TKiA+Y89zM1jc6YmdRMu1MvIxdewa7M68rZcfEFj1hDXXW1jb+4PMqB5+stZ8NccRpS4vJtltO/aH0ZdUoA/+ar86/rKi8yNToY7LdUf8a/rA9351WO219iKfPZmUH/UwNf1pR99V+df1gPrSj76r86/rAfWlH31X51/WA+tKPvqvzr+sDopvW9d6WDD4ggj+YgbICAgICAgICAgICAgICAgICAgVH2g6HTqWmrZkjujVr5KQUstVHDBgf3Se42I3Ox7mQ5IjtmWYb9TxvpmMyqeJ3DIR+6yMGQgeuxA7fKfOsfNyV5nqfnr+i3Nd1059GzWzNIryMsqviILOx91VI3HvHb07nf+HpNOfg/1M0xxMlJ8bcuPmpl634mKeSLTsX2PA7sSNj5MAB5jt3Eky4LYuLGO/vM718kTu24btZ16jRMZLdScJU7BA/cjkwJXy9Nge/6yDi9NzciZrSPMfDM3iHg9T4fHdcipj5cVYM+++2wQe8Tv6bbySvSOXNu3slj1IfNtC1X+lftGyMpARXTV4dYI2bu225HoT73zn0roXB+644p8x7/rLj9Tyfg19U3q1mLf41ufhPetG62W+AtqKFUORzPoAd/5zr5M2Hu1aNqWHByJrus6iWrRsHTNf0/xcHFpKElTvSiMCPPyHb+IM2pTFkruIhpkyZ8V4raypaJrekadgeDfjG1lazdzRXYTvYSo5Mdz7uw/CV8eTFWNaW8uLPadxbXs7/6TaN/9H/tapL62L+X9kfo8j+f90z1BoGJk6CTh0V1NZ4ao9da1uPFdVG/EA7bN3B9N5tlw45ruI0iwZ8sZNWnett50TB0quqinCW92B4otKXWsEG7MS3p3Hcn1ExeuLFXzBS+fPaZrLm0jUNPyNeONi4YqvTcnlRVWUKee5HcHfYTOPJitbVYM2LPSndazt1LSKtc6gX6wXmlFYIU91NlpP2h67Kg/NN744yX8/COmW2LFuvvLlvo0+umyxNO8SuvmHtTEVqx4f2/f277bEH+BkE5OPE67f2WKYuVau+793rQcbS+ocNrNOxaSoYoeVKKd9gfh8CJLSuHJG4hBlvyMVoi1nFovTWFg6fdlami2Ata3K39pwpRyqABt/wB1Qd/PuJpTBjrE2lLl5GW1opWf7fV71WzTdHxls1TTWpRiFVnxFUEkE7Df12BM09Xj/wAv7JPR5U/8v3bNc0DBz+mXfDx6l51g1Ota1tyfbw/IA+ZHb+MlvixTTcQgw581cvbad/V15mk4GnCpGwq7Wc8EWuhLLGKpyJ2279hvvMXrix1jugxWz5rT22cOFbpWZrJxBhpXcN90sxkQjYciD27Hbv3mMdsF7aiv7N8teTjr3Tbx+q0dE4S6d109elKK6mxS91a+6nPxQtTBR2B2Djt8BK3LpWto7Vvg5L3pM2nfl9MlVdICAgICAgICAgICAgICAgICBTuvD41mPRnOa8W3mLHHbe1eJprZv3VPvN6blFXfvsaXPyZMeGbY43P/AF8tqREz5bNHzTm4IN321JSz4c17MR8j9ofI95886hg9LNMx7T5/Pyt0ncIHJ1HTkyNrVYsbbFFYS0o9yOQ5RNuDtyBJYd99yfjOrXB1GcUT8a9/nX6tN12sOfeuBgu77AAHy/8AXxnFw475s0V/NJM6hVOn+kF1zFuqz3I4X+KyFVtTnagsJVW7KwLuoPkRtuCfL6LxK0vji8eNeN/XSpbxK66ya+l+kb7MYbCmhypPdiQpIJPqSx3/ABl+Iho+O+x/F8HQbb7f+pZ5/wBlF/UtOnw41WZlyeoW3etITnVGZ9V+w4tvs+a/MehIybjdt/lDac+091pl1KV1WIcfS9B0v2d18OzvWWH9+9tk/wDJROnhjtwuPmnv5P6JbIA6a0ZE0fGa3iVUJXsD5d3Ynz8vPue8lmPTr+GNoYtObJPdbTgxupsu7IRX029AWALFhsoJ25H3fIecijLeZ/2JpwUiN+ol9R/aajjIP6z2sPitaED/AHup/CT382iFbF4paxjal9T9X+PlY99qDG8Os0oH2d7OVnLdhx7Ig/GUuXS1reIX+DkpTH+KdSqfs/0rIXqHNzNWqatrWJXkNiTZYXb/AIE24mK1ZmbQc/NW1YrWVp0huaZN1e5L3WcR/wDkBSAPlvWT+J+Ms18xMqWXxNKz8RCMytean2Vtp+DjZRyXq4PvSwTna/K88/X7TzlTiyb9nbjNjiNRaGnpLAfpvog/SE42bWWsvryPZAfnsFE6OCvp4vLlZ7+rniI+HfrGKcfp+qlEexVfHW0IOT+Etim0hfXsD2+cZ629HVWvHvX7x3WlF+1rULetlxMfRMfICK7NY1lZrAJAVT39AOU50YbzPs633jFEb3CdzqQoxaEHbxE/LQviD/cqfznVmNRWri0tubXeq9SXTOsqrsyq90rx34GutrB4lrgHy8iET/dKvLra0xqF3p96UpM2nyq3SWnX5nW2bqGp1PWHL+HzHE++/bt8kAH4zHEw2i27Qzzs9ZpFay+jezurx9U1DIP3teOp/s01hjt/jtb+Xylfk27skrXEp24oXmQLJAQEBAQEBAQEBAQEBAQEBAQNOVjplUMmSiurDZlYBlYH0YHsRApOLoGZoOE+PpdNFlXO16ylhpYCyxn4tWU4qBvx3VvQdhOFzujV5OeM02/olpk7Y032dOXaZpGHZp6rZkY9bLcoIHjeNxfIKE7AObVDgnYHuO2+4v8AM4dc+CcPt9P6NK21O3jG6cyNdAs1p7MYKwNVSmouNv37vtoT8FG4HY7k7bVeD0fDx6TFo3M+8/8Aja2SZlYdB0JdGaxld7Ws48mfjvsgIUAIoAHc+nrOniw0xV7KRqGkztUvbnmGronwKvtZN1VK7f3uZ/D3NvxkkzFYmZYVvS+k83AwH07HvxgiUO72FLOSixmHx23+0d/kJHwOqRycU9kaiPCHLw6zki8oPqvMu6y9maZNgqxsbGYiusc2Z+O1KfJe5I9ZXtzaRyI48R591jt8bTdug5updNY63ZOLihlpdRxcMvDi6ruzbEggenpIcv2iiLTirSZ7Z14QU4FYt3792/XjqGi9P2ZYsw71rALcVsXcbgEqeRG/fykvF+0sZs0YZpMT+aG3S8et7bdJXPzNHqyNQtw8YWAMqurk7MNxuS6gHbvsN4y/aaK5ZxUpNpj30x/C6THujNbxMxNYxbdNy8S65mNCVIpCFXBsdnPNiABXvuPgJnH12b92S9JrFY+UscCladnvtO2YObS21+VgKfgVsB/1cf8AEjr9qe+u64p0jnpOP6vOBhahqGo2U4d2E3BEdnC2ld3ZgF7Oe/uE/iJ0uL1W/Ip3duv1az06lZ8y36L0PqelYXhHJxbAGYgslu45sWI3B7jcmWKcq1Y02y8KmSdykP6M6l95h/lu/Wb/AH230Rfw7H9ZR2vdBajrOnGs5lFPdSAlb7MVO45OW3A3AOwHpI78m940lxcPHj8x5ddPTOrLWBdZgsfU7XDf57bdpJHNvEaaT0/HM7h7PTmpIhNlmEABue13l6x99ux/D6fWVC6C1e7qXWsjIzSONSiuoKNlHNt2I39SFHc/KTcfJbJebSr8zHXFjitflbtKxM/XEss0o4q1La9aeJ4vJvDPFj7vb7QI/CaZOXNbTEJMXApasTPu706X1O08b7sSoHzZFtscD+yrELv/AB3/AISOeZaY9kteBjidrhoWkV6HpqUYe/FdySTuzMx5M7H1YkkypM7XYjXhIwyQEBAQEBAQEBAQEBAQEBAQEBAQMbQAG0BMD5d7Rm+tPaNpGGO61l8mwf3e6E/kI/GUupZfS4t7fk2pG7Q2a/lY9dmU2Rn3Y6WKKLuNQNY4grxFrVNsd2Pk3mZwOnZOdhwVrTFEx77S2ikz5lA9ZabXgdH6dpmkktXfkVqCftNWWNjMfL1YHyjgZr5eTm5OWNTWJgtGoiIWDqu2vGw9QvuVGGNhCusMAQLMhjtsD2B92v8AnL/QKT6Nsk/8plrl99KhnYZw/ZLp2Eu/LLtpU/H9rYbjv8h7o/lIMVu/qOXN8Uj/ABGmZjVYheNZSkajWBdZW9NZUKlH0gBX47FganCn3Nh67b/GU+mZOXSL5MeOLRafdteKz4mVR0tLsf2kfTNTqvbH8J6sa4YxXuDsS9dSAp3LgEqNwROz1HDn5HC7Yj8U63CKsxFlioXGz9durw8oi6w+M1T41RcDiqb7308uOwHmf4TmV5vM4PHrF8cdseNpO2tp8St/RrC3TWJWoMtttZetFrD+FYU5FR5HtsfmDPS4Mk5McXmPeEM+6f2kzDMBtAQNGdijNwrKrCQHVkJU7MAw2Ox9D384FO0z2X4Wl1FdOsyqgTuQtzAE+W57Tat7V9paXx1t/uhaND0mvRNMSjC5cF5EcjyYlmLsWb1JZid5jbaI0kJhkgICAgICAgICAgICAgICAgICAgICAgIGDEj5hdpuWntSys7JxL7KRStOOU8I7gcSx2Z1I7hv5zm9T4t+Th9Ov18t6W1O2nrXp7Mzug8TFwqHZrMjx8tFKclDu9tindgCeb+h/dl2lOzH2R8RqP7NZny86tgZed1rgZAwcn6PjJZ2/YcjYwIX3fF8hsvff0nFw9NzU42Sm47rykm8TMS7dV0OvVjb9OwNQZbWVrEFoWtmRVVS1a5AU7BV9PQSLj8XqWDHGOlq6hmbUlwarg5ud1Zp7rp96YmKHYDegsWKcU9wWbADYeu8lw9Ly4+PkiZ3e/yxN4mY/JeelMZ60ybsxHra64sEfjyVErWpB7pIG/AttuftGdPg8b7vgri+jS07nak6LiajZflP1FVqRL3u1K1ZHBEqJ3C7Lcu3w8u20j5kcuZj7vMR9dle35SODpf0HUnyMHAzXyLFCGy+1H7DbYM73MVXsPIE9uwPlOZm4PP5WqZ7R2734SRatfZdOntOOlaRXS5BYAlyOwax2L2MP4uxP4z0FK9tYrHtCFJTcICAgICAgICAgICAgICAgICAgICAgICAgICAgICAgIGNpjQbRoIDaZDaY0MzIQMbQEwMzIQEBAQEBAQEBAQEBAQEBAQEBAQEBAQEBAQEBAQEBAQEBAQEBAQEBAQEBAQEBAQEBAQEBAQEBAQEBAQEBAQEBAQEBAQEBAQEBAQEBAQEBAQEBAQEBAQEBAQEBAQEBAQEBAQEBAQEBAQEBAQEBAQEBAQEBAQEBAQEBAQEBAQEBAQEBAQEBAQEBAQEBAQEBAQEBAQEBAQEBAQEBAQEBAQEBAQEBAQEBAQEBAQEBAQEBAQEBAQEBAQEBAQEBAQEBAQEBAQEBAQEBAQEBAQEBAQEBAQEBAQEBAQEBAQEBAQEBAQEBAQEBAQEBAQEBAQEBAQEBAQEBAQEBAQEBAQEBAQEBAQEBAQEBAQEBAQEBAQEBAQEBAQEBAQEBAQEBAQEBAQEBAQEBAQEBAQEBAQEBAQEBAQED//Z;" vertex="1" parent="38">
                    <mxGeometry x="407.71000000000004" y="38.5" width="164" height="77" as="geometry"/>
                </mxCell>
                <mxCell id="39" value="" style="group" vertex="1" connectable="0" parent="1">
                    <mxGeometry x="330" y="340" width="740" height="140" as="geometry"/>
                </mxCell>
                <mxCell id="18" value="&lt;b style=&quot;font-size: 18px;&quot;&gt;Data Processing Layer&lt;/b&gt;" style="rounded=1;whiteSpace=wrap;html=1;labelPosition=center;verticalLabelPosition=middle;align=center;verticalAlign=top;horizontal=1;fillColor=#dae8fc;strokeColor=#6c8ebf;fontColor=#666666;fontSize=18;" vertex="1" parent="39">
                    <mxGeometry width="740" height="140" as="geometry"/>
                </mxCell>
                <mxCell id="28" value="Batch Processing" style="rounded=0;whiteSpace=wrap;html=1;fontSize=18;glass=1;shadow=1;fillColor=#dae8fc;strokeColor=#6c8ebf;" vertex="1" parent="39">
                    <mxGeometry x="219.9999999999999" y="55" width="314.58" height="30" as="geometry"/>
                </mxCell>
                <mxCell id="31" value="" style="shape=image;verticalLabelPosition=bottom;labelBackgroundColor=default;verticalAlign=top;aspect=fixed;imageAspect=0;image=data:image/png,iVBORw0KGgoAAAANSUhEUgAAAOEAAADhCAMAAAAJbSJIAAAA51BMVEX///83NzdFgMbE3fA4aJtGg8s3NjQ1NTU3NDDJ4/c4ap82My0tKihGg8zH4PPK5PglJSUsKSYxMC82MiorKysvLSwnJycfHx/B2exEerquw9M4ZZX5+fkcHBw3Oj1GRkY+Pj5DdbGhoaFNTU0nIh59ipS3zt/k5OSkuMfc3Nw4Pka6urp+fn6wxdZkbHOmusk6SV0+XYQ8VHJmZmbFxcVRVlqbrbuKmaU5RFKLi4tYXmPExMQ9WXw7T2jR0dGFk550gImsrKxueIBxcXFhYWGTk5OEhIRhaW4hGxTs8filvuF/pNVVisq6SWDtAAAdKElEQVR4nN1dCVfqTNI2KAQkBBIIIKKJsroAgpdFFBdQmZlv/v/v+Trp7qS3bKx33jpn5j1ySdPV1V311NKVk5PDUP3Pz+p5bFqWZFlm43n186d+oF8+ED1YlZIuyxIkWdZLBevh2JPaJb1cYeY8kisvx57W7ui2wvFnU+X22BPbFXVKQgYlqdQ59tR2RD++HP4ce2q7oboED6Gs6wYkXUefSP8MhfpQgOyY62Wr9TH9aLWWaxOyWPhn6NMG5EYZ5DOY8gPF+UwfH3tyu6DOFRRhQz31SEVsX/0TdM0L1DPKNENwmJkq/xhdg/WMVj0lqar9Y3TNQxmeuGWG4jCz1J3Py//7uuYZctIcqBSH6qAJOX8+9gS3pTtkKsanLI2Rwfhf0DX1Tkd8muqvj8i203qG1DWy9OvjSPkOe2i6ezTLFfn5gZ1N/c9KL+jIj5DaKsOh2sZQxyhIj+/sqPWHZ7lSNh/vDsRFAN0WSrKNyArWD7nf6j8mZs8+bf08t0vzffffAZONW3KFOj9WwZa+XCof3f9YFdxplq6+sSjuHq9KpEeoDVgR2rpGI74Bnv7FK/S+Ip4urI7FmkP1b8pt0CuNLyCKu1XFID8GeIY9hc5JbNBucanyCHisfzUqOvXx9xFPY73B+kVyWXr5LdH8SbpIhI7B0OkvlkovYHuy4YBS42gsdkxmhnC7UfzJhqb3eyIGAYu9vq4ZFEOlEh/ukHTzSBalY+kuG4J5OZ/r49YgkxczCFjMZwYfY93/acyidRQW664Ejfl0rPHi1DWz1VMzfuwhJjNqr9UQPj2ezhVXikfYqPUx3o1av5o57fabtCj05rxbDWEPM3naXdNHUjaa/cFp5rSP1a0xPjyLz1jJaJ+qM812S1JcHnWj32PYU1Xg+qo2Of9lmOz1Dc88KlKr7TytfmIWSwfHr79lzGArj2dZxZvV5o88fICnars2+Wgt+/11v//Z+pjU2tUMuQRqHvOoK+PpKf6nfAuzWP49LIMPVy6DhKmzN6umGM3xgJi8mq8OPvoNuanZISiHDENpyuP+dFAl1kHNDMZNQ9GWA5Uc0mXx6rB+FsKUYIvSthxs1ulH19uDav50srYUQxfEvHVDsfoTgklV7X5M2+zmxhtVlg7J4B+E1ZRPDqyohPZ0ZKoJuPO41Jr97qk7iMoeUHuQJdKohT8H5BDFePV1kK60zyWLWgSkNxvTqgjVuWzP4SAHjek8OpZCtqr+HGZOp5bmLz1Kkor1EcCjWrWccYzHA3KI42ec1+fOSp1aCsuf7JAuyxzjgMeJr+1U2ygud8hcFQovGS2flc/UxrT8gFrRDMlsjOfz+bhhSorGKB9ZG9f8BmtBbHHQoFWnjIQiXvTTlkKeP4BQrHXLNoFq3ibVNo6ttUWjIN1onYrFiGRePig4XUEOlIlgTpneWCHY05tmq1a1tSRh+2yNWx20zCYpSWXcE4hRnaAMwGFRzTvMecpjnsPMlMDRAIB99jI+RwxAndonAfUA2p7wLKooKFfhYjn7JZxu6TKTVz0oaR8uYAh8fSfn6/nqtEEcWQhyqW+gJI7cOCyDOGWm9xlMU117O1QzJ4GGDsn8dGISz/SZw5hBAavC14E5rEMbJRmUwVCrrk8FLHmQkaOX5cNDBsaYMrJqGw54hAQHgjWUwSAZVOZtPoLoR/m26+wyLGJTcYQkVQetLWEwAINuXEOf8ggzSIzq1DUdNIsp+PExihqQwdA8g6G6EtQlP/PtS5ma5UVFvCEn2jFMBaR3nHPBmzHTN9wpBgBWXzF6W1xxU3F5nL85pF/hEsY1KPXp+aoKqw8jsnjax4dR+0AsVhGeKRyDQYRNZUlF+8md3nIT/pwxlm7kCdlZFansoyRSkc03oBOs4tUGEtyUQTAKlqIswZ2R+UQKzTw8g1/IzdfRVJCbKhmBXrGqBqtYdY3Oor6Gx7uKgOvBDb4rQg2mPgEYRTMb+ykZJ+DW69V8fUrnS67BQRAVDywfPHnxBxc6OSJU2xZOd4oZAPiz21o3JENr6stAIbZxRZgFR6qipSy8HpjDb50S4RJtrqbAObD5Gyy9gJu2DLKVmUlTIg84FqL+fVgG764oEdboWTH8qZMx5Qf+q8p/iWARKRdJq0Ehohq4q8MmvOlCpzxSM3JDMPd8bc1EpNjKE4YwS0jZuOVThw16I9Ng0CJU+D2qZj4MNqIYLEOwT5HWaiIhIoOhH1LXvCLv8NNZ5fxapzQ8yWB1rjH8ycHnkB8v/3mE8qlHnVhktYbVjKCkxCQywnYcX2vKgbrUeaqH9oTeg+Oj8qkD1izU4UlBURqsGvQlK0JgRIiKE83qf0y6tXa415FHRW8YL0H4LVuH26bIrTAgPkYhaUlj0/VAgi6DenM5qML8YSiDQIjIzENVDY6y82fhULGo+i1iSYGbCLtwfU44rkOs65/BESmWxT7pfKo9FIyybg/hB78/lssIdYzp2bBhtzxOGgGvvRY9ouGM2UUxUoTikZcolwqPe3YUO1+NghdqgqcEK/MGN0ukLwCIie8QN0hzlPn0dnuhsUdBvq+MMmG70RZCm5TLYeDjSaeJIxIOQNG/gQRZWu3nQL6adDWWbFHrq9SYOGcL7VHlM8IOZfWPWlOofWJRqEivmHvA4czlLNlAbnjeQqqcERQurtTn4RJUq7Uas5HxsKazPGrXoGtZ5Kudp9roy1mypreQXWtTi+2J8AMXyAb6g/C7XVNRzC41AK4DV9rwz3ZLosuKKjsOoN4VCPYMYzzB2Xp8RLgslEl5yIEMTmxkLtOOFw77YA0Nfm8ypwRZ2K2v8ehpUM1qEcUy2BoziA0rUkF9N89gEy0GyaLahgMY3gqp+V7L9AS526Q3zlJIRnM+oWw3qvSVJWbaWP+EijAzwYKRDUqK8BxTtxjUTHWy1tBi7xbEdVC6UG61Ga2HQrbynPkYzs8NpkZg0D7dE0/togoML+CMPlbbLRTor+zSLt5BDrUeB72Qu8oqGrTHRPXdDINNUkcSZxHtAgRNSR7zNXj0d5oyRXEnnS+FRSEoAwepwU7KA3zt6p+M/WcQg6R+JDcqOuCy1WYfUnsIiO/SJqL4tuBOQQ/fp0D/AjZRv9XOo8hDs+386cciuUVZFlV8H0PgdO4hDv5V9lvPGomunPU1dEPvItCldxVDV+SamEWAr/nKGhzEcV0W7mF8U6O8yyBxAIeM2WrojoJBwNlyQmx6w0eIpqBmSjbRSF2Ed/nlQSdjtxyWfDmE80DV+GrPvSRDUpN7DsqCPoSIkNDwdQwW73oclg7EoUJxWBNW6vEBHBGHaFWQOsMcagfiMPQc4l0atPG4h8dwS6NvNSS4paGqwbvUX4aHOoeMphnw9YiywXr/7sOSAtTSBIWdWl2dUEsH1jT+1qLNWAveAIjixO7TrWWrjTarMgW4c+maFtdacDZ4L9biNbrFz0xoEyA3u/7Q1C7bz3hehFPFj8cJt/i7DNmgMjZtEAG15bukFIEJDwFu+JZek4ZnAagN6aDKLt0njLyB4yRG3jqBvPMkmNZ9t6i7RjIKEjAQ2wd5Z3otaw/3a+tuAtSYT05JoIl8cVyvAD9zN6osKjakCaeWWOyOvac+5T2dTub4mtSOQ+CEB6zILeLGQGYq8ICxugk8g5hQLLRJK1zXA/7wPGDnWo5rcEu7Lfu+w1dkHEHabnCGBld0FCPfdQITRqgEvTy9SX/ORzGqkzlVVFzeccb0h4pE2aGMwEhUpms2m41wCbr3nZUPJpL1yUaiTCYStfMLwr9cNBECtbwpVhSnvV6Eyig3e8yaWjdICaOJg/1HE4EX3CjEiQhzQV4RufdhWBGGRIQLjf2kL94f5RhR/QikfuISKIuxekFR/bKxp6i+TR3yojXKX1ZxlUJs/k7d5FSTQ66+mZmKue8U2/uqUKKyaxm/7FoIf/lew6u2ZHCPl12DG2OM7eu+kjI01W9NcYY0Tgo00/50vRB9zv0zkyF1N+mhssB/6Cw3DuD7XEpnJg/wdb7aXeoehjBZl8VL+lJZbkeGrwdJ5iMQF1qpwFO+PehOPtYmcWtI530ycaUC/HbB/DlEqhu7A7DapIerTcKFuNQU5lKXwUnQC2/Q1SauHAvPe7EVdXfl/v2f/15mSalh/0dQMURTZsmWD0nams+AZ5iKoSUb/NmHQn1/lEoNJ8as/l8CUAr9FFv1FSzE6r/YqTYFlxbcempc9SXqTVEu8T1tNqf6V6MMQJNeeT/5z39t/hK5RRqyxFTuce4qPfUBE1xrzkWX1Xwq96RsinraKNM9bTanu8crXF4yyyUQ3RRJllx1Lqy+FMtQ1pVxV1Rj49aqIt2MGc5eLlI0k3LpantB1h++r1y1nrq+wBwmZ/C3cAWtWxMa6C/hcyjrRtP8HAhTNn4VtKmnXPJieF+kBalfjb+2OZF3vxaJtlP3CZfDS1qIbhW0Hpi2ry6bNpnrj4FPzwy+ChqJsHieBD+bOF8U0zSPZel3U0/x4btMd4spDt1dmkjc00J0K9kbgdVBanXQa1dPfTueqNUGW8muUKubTF68SexmLTc2CCx2fkq0s5RKZ0cEg8lhFm0mqFzy7m0EDoIxPAR7VXP2NgL6O3uZdH86cfaUTtNMFko/sQRZf30u0P2RUsXrt5tkgiQkRIw72u6Nko2vzJA3StBVf3zAiQPiCPLm7Zo5kQAHcA3V/MVn0uKT0sXZZYLmL5FDVt+7FYRNgcIXKUZmECMC7E6pElakzM8nE5cz9kRGBHR/VhX69AEVPbrJMT9g/wbSNe7Nro9tb3Z5N2y5m13ZHP/7uZsRdyIr3yGArnPLFK854rvghwc/cIZkKLqdNw4vhOIZbAfcznM0KUc5IMgsI8hKUBHq+6Ne5sXHbk88+hNSpgRS8ypmrZgFpYCXgXfD0rsDj51PYA2FswAncsThgNJKKEgAzbjTdz28SIr5A6gGrp2sk9sMq3pJBr5jHDHalxZch5i6OoXMY/rGZx72ibznTyQH6Dxo5opPWpwLTp877ggOyt50dhdJE2JOH8r0vEsL4pvO6VHAXHLnC+5EXlHxjvoj0wYwVbwfXgTwl0hc4OXyv61uRL2tnqkSt0642+rwXwjEKKLcxXDGArrKyj2QHYsyfql08enc5/S5y4Y9RLbjwClxg0Qxp2o4jxl1SnYcmPt0HODsBcujDehoQZYkhAI61LWdVDbo9LkcInuvcFeYVC/CJMmaOQ3u2WY3CDMV4gHfrhGp+9A5AWR+TfEow9xGveExmEqnns5CxOcMdo6MobDzh052/kh91k59O3+c1j5lsvOHPuVVsBpoMFgmz55I1Qp79d26aSUIzcLH8UyFm74nKV9rEN1bJEMbtwbVPN3jygm4DVpjqjGk0hDd4scJfT+DIRCkdyLLP0CEOCwEbHsU8Tl0gay9zk/InlP1k6o4lA3FmrcmtWoeU7U2ac0thcq2yM1PH7cEbYlsoK4hmATI3DUfpTpuUgLUsQia+YyBHAvfXEVe0EVJ0TTNaozn47FlaBrbwk0GAvQBCdhghOkaYn65C2TM7IKNX7hC6WGUPYBHwMYwqBOWyZfloV5Ygs9ttes7VjvcJHKUG8Ip6o/oTnZqFuNpHIgK7mZWjdHNTIrSzSy9iDNHFGeRGycWEmGsp9/QAgXepbANQVDDPcSerlnBHenwVf/02yZzlDbjEBkLkbdLdRXMD/pWSFdBq9/NR+sqGMVciDjEuzTGMQQkIX3MNk5U8+1pq+vBEvD3ZGk1FXFnSMDepM12hmQijBmcRU1JsWaYc3fpLwZFcVjEoTaifSnkZ9CXFWAAB1TXzmpt2reaTUUhuntqTas/rVWpLqCDuWZo8rJG3XZwO6YUI6tSh0Gk7oGmwdYiO4pm7BGLiyzLol3OgxoC69qa6kCr2uVqtcm0teyv1+v+sjWdDKoq3aE10+7jh8cTQYfWbAw9Y3uNaH6Fh5M6Rt0Ab3PBmAB6wjaV6LLr6U5dW9bYTrp2YZ5j7wVddtXa0ismkZ1aFmdUtzVa+ik6f4zFP/khUNv9W3SzP8PQSOmDJe/2mabVurKe+AFSmpxOyVQbQrvR9XKQITolp2ZR2cvdvN3TqI3oWg2R93ky2om8uMbj2N2uFT5BpCtmqxd02wKyZ99mEj1tjCc4eBrmHXr82cg7zSJv4D2Ri58qShG8J3s0j0VZAF+gKJyeif59O4ES+jCbXM0tOypgMMqEAOiWKDdY15EPfCfR4d9sdhHmATsj3tzTXjWkNBUzsfteLv3uW9SWTP9L5mHM4H0EBu2URjZLPed6wECKqyt6m8AoRrgU79kJAefsbcTEhWSd95MdBgesmUwVR6N0ll22dAQGcxfD+yybllqR0ag7t0rGm+oi1HwkEzOKGeBgDu3NwuaH0F1XhvJMXT9Q5vYvMn66lJ6F7SdgHPjUYoF7vUnnlo8mRhDkwtsY6TTQUs5kuGi0qJoI120SK5qD8z1/IjZrdhEyg+TFJZdVLPikh/88WtQXYUQ4RJBvUF6prERaGnvXEIIUFaKQBQhOdMFdTFvjoxVKF9/CxMeG9iXJ8s0M178YDu2fyM4uE0GCBDskXSzyqRsnmYmZDHqTDmCPj+05iRfw+OImaH0FUX2Hwy9xEurutyB8E2Mqmw4WJDh4FwnBF5I2kxIO6Pi9DUmS7NiX8OmLQKtli49XSw6VKqKXD31f+b1pMjagI2aRu8H5G26XohBaNjqKokbms2skoTfeePTAZgxTdI4VHZRNpoITONxbyVDKJSoco9jL8RlSdsZywSJuDa3ot9eALy+GCyaRnAKq8iyG94En45ZPid8sFz285A2ZPJsJJjccSWzqG79liHnjTyo1ezsHdDa6T7GClN4iATqKELZjrsRUUcb4OjZ7LDSz+bsfndlTfpvRMy6hl7c8lsgvXz9dAu5sOj8fPjHLYp/IyEFVSLkRVT7F6Jn0KFZswYFm9OlLpaWnoTvjy8U1OeOS01rqwbtnYLtPl/DL+IkRC4ZS2bC0FEO4fIp6qxV+m1XRNy0oYC/HVwylstcjLBE45cs3csbOq1wxdrI9J+rLriCZQwzMx+I8+mbNuUkc/k2rqfvIInSgTpY5fanZUDDjS2/GsuVeSwM/BvbymYAcQXKqFQgyIo9e+VT/s9VqfYD/ffZxoVNEPZMUFHzZp4+XCBLkCLs9lT+4a3XqScwffOJs+MTyGAHQYUKP8G88lqKFzwTJesDfbBg4Y2SlSj8nyPBe+34ZC3LBaZ0wQIcnOPKzzJHi9LkEcIw47bLwEZ9H13BZxyginFqEfN9mklXGQJBZ31oNgm58OQzVM8nEzSjLis8xZ6HTXcCnrBP01Cj0EYEyllC9TZj/NixKIiqGBdqBY8RCM2DOwsXnTHaEJnpiwgdnER46c5TxjF3S4nVYYi45ErFYDN6jds0TB82yM8qcBc0UxQJN3Fo9NYz2IK2M8bqmZ5eBWid5mSqmUySli6lAPWojaw6aicyZ3zSH8Fl9hdolAHoLUE3M02dvPKBLBSbIk4mz0dPs/v7++voa/P/saRQEjezawxQrvtR9rBmix8pf+BIzOFERN7gzwvlQoFoDa1SSyZyzlS+cDZgLXo2nAGgWYXKXo2v8vH0deuXW+KQlAUQIGEYA6N5iAToRe0Jo5mvbhYtPoGnnsnCHCLIBTRVvLO5EBgsylL/E+VOWg2Zxxec9L8sdBnrDzRYEFrgBeUAXpeJIyF48aCaYzpm95OTjuO3C15W8w1GdwGAMZO7yd84GPSUbWW+x2rL3QsE/bF1p3IPNBvTSwMWKAuhcEkOzTU8f5K9gEeGo+q3FBmqytqsYffwZJ8jiIgKgg+JL3LBFdzY0i7zGjvliY/oFk2nuUn94ZuP6MQUpBnThgsxtAc3wT7PiK5VXolZndy9MeyfbRYlhZQWALhsG6PygWRzbzvoDwO31rdm/43ogRfJTAlYz5bhYfjxuDc0EPp0dL/EJ6tdfvyuiVKV9IrdZUgC/hC7WDqDZkN00iMVKQ3C5pHPLBoXJdY13LKJE6KhyAvwzMQ8+a4oJHgvSC51c6zyWWDWzjWq75FQbOJEEoAPQ7O1aAPm2Ut68siF4vC0Y9Jezs52bJ6963IZmRfYfYyNr3gDPsvSHutf+5OWK+jWoAJM3bIW/nQLdGtDdXNzsGprBmxNJgVqu/GIJkly4UYk9wEQ71HrNZsS2X7d7DIS5qEfBkeK7xyALRHK72E/iFJ833I72vguPRiQ8cl428I1VqAhMJgVFDlwkPWRWM95k4ZFi6K/IGQYK4trv30HvxAG/5lNEYyuGNHuwt1QMcPm3DSqkfbJEjpuCvnt1d3KLYt4z/zCLbZu5jFbMsAkP6OJBM1GmL3DGKKxfuj35hnYwFRz0TDo1AeyJ3BTQ7RcLwglfwCfkZ1wFvQhzApzMskAQEcOXUJBgZ6XSaSkmshZk1MIz7jkm5h2pzhv4OTzSigfohqPFaBhLfBv6ZInkkKlkD5UhfGzjNII75/MY3xUkSopREiWOOFA+yIp4DkkmLzdKBcUkcbLrPnLRC3EOf1xdGjXSKaq0CknnxeYPOEZcwlKKEd/K3cxcXfpO2MPoA/BXNgGg25EgfaFZDBGQ9vCkQWGayJen+OhRrNhtAH88NMuGX2olZ3ZJYxoGl0Y9yAlh1WosQOcjPoHjGEN8Ilx68kJ07oysjNF45wvOVYgB6ITik+jh/KCZeM2FvoVd9MXKIYbWoa5sot3qlCjF5u9McPpiFGEF+IdAinSriAigiFw4Jxm25YkU5l2zs7PIgXMwC87HLxAtTt/5bi1BwJZfPb5UMFbYRRDYiVMMKXANmDiNzeMvk7uIdwKEobPrRRRB2o6RCJpFFp8goyoX5Be+I0/9y6qwuYvr6BlP5zZVfEC3HTQTZlRl40oUL4WC5JqbOEGC6IvJlV3bpar+m9UXmsVQ5myYBXDA3UOgA8PsnQQi0BPhF4EgOXvml/zwgWbRj78gVGYUvn3K2InN+i5oMrSIet0rcpXPtvWATqiCbWhSLkTsUNe5lbhsonMZJuJvA0AnOJGk1oExawaaRbtthX+D83DsjGGMLoOvzzoryOgZT3FK1wV0O4dmjvh0cWOhIEH+sGnh7QFdyon9iuLEMcQnyKjqlc1ebFl/fb5iBSltCehS9zMBNNtKlbHthOIKUipz172iAzp4SYthiP4rnZ5Fv+MgatJW9k/4RhQk1z0xTnWwDeg4jU6Kb1toVnrexavJ7n70AndTMB6oEt7fiT0KpzzlnTVNrj80rgxGkPEA3VuaQ+aRyovRAHxGFZy+ceQ+iZHo7lcuMy5WnMslySRZk+AUpG4HzTZvWupP9a8x1/MsRgmbowWdMtq0XVS8DTQrVb53Kz6P3h8LXNvBp+gRuuTF2dviafF2FgeaPbE3fMulPYjPozpXshGt+5k7Y4eifjnBhrrkmNBsM3pfcf0jizEgSVRK8h3mZOAYHebVAcDF4nqAxrzuFUZOyJmDZlu1fY5J7yse0AV2koxDwt6r20Czzahza20D6PwpJ+jWWbZ21H49Jr2uRIBuKyadS1wcNBOWUh6GBC5WxOtefuLjodm2yHpbqr9+b+NiUeITQLPK92HeSRJMdy8iXznmZrVj1iw0K1gvxxWfR8DFEnY4jwxdgI/FdyDfGzTbjO5eymyoNWrMXAjNyoKY9bEJuFgF1sUKj0/YMWv29BkF35j1sen9UeIAXWD2VtD8Vy5LB4JmmxH12jJ0In3DvMIGzo39I+ttSQDo7PZBLJOCEt2dvFXlIARcrDIvSGqz2o4RB834Rup/Mf1ZsaXxdh8fxKSwGf4+X/m3HxK8ZiFrx8yTsV9o8BfTK3eVCrhYQ/707ektYwch/nUn7EWO4yPrban+8MykI0kqVaK/HOYvps6PLrxwJBdKfyE025AexoyvvOlLmv5iol0seS8x62NT/esbnkg75fD3Q7PN6O722ZTM59uDiu//AdCEBKcJ+EfIAAAAAElFTkSuQmCC;" vertex="1" parent="39">
                    <mxGeometry x="580" y="22" width="80" height="80" as="geometry"/>
                </mxCell>
                <mxCell id="40" value="" style="group" vertex="1" connectable="0" parent="1">
                    <mxGeometry x="720" y="150" width="350" height="170" as="geometry"/>
                </mxCell>
                <mxCell id="17" value="&lt;b style=&quot;font-size: 18px;&quot;&gt;Analytics Engine&lt;/b&gt;" style="rounded=1;whiteSpace=wrap;html=1;labelPosition=center;verticalLabelPosition=middle;align=center;verticalAlign=top;horizontal=1;fillColor=#dae8fc;strokeColor=#6c8ebf;fontColor=#666666;fontSize=18;" vertex="1" parent="40">
                    <mxGeometry width="350" height="170" as="geometry"/>
                </mxCell>
                <mxCell id="25" value="Statistical Analytics" style="rounded=0;whiteSpace=wrap;html=1;fontSize=18;glass=1;shadow=1;fillColor=#dae8fc;strokeColor=#6c8ebf;" vertex="1" parent="40">
                    <mxGeometry x="17.709999999999923" y="40" width="314.58" height="30" as="geometry"/>
                </mxCell>
                <mxCell id="26" value="Predictive Modeling" style="rounded=0;whiteSpace=wrap;html=1;fontSize=18;glass=1;shadow=1;fillColor=#dae8fc;strokeColor=#6c8ebf;" vertex="1" parent="40">
                    <mxGeometry x="17.709999999999923" y="80" width="314.58" height="30" as="geometry"/>
                </mxCell>
                <mxCell id="27" value="Text Analytics (NLP)" style="rounded=0;whiteSpace=wrap;html=1;fontSize=18;glass=1;shadow=1;fillColor=#dae8fc;strokeColor=#6c8ebf;" vertex="1" parent="40">
                    <mxGeometry x="17.709999999999923" y="120" width="314.58" height="30" as="geometry"/>
                </mxCell>
                <mxCell id="41" value="" style="group" vertex="1" connectable="0" parent="1">
                    <mxGeometry x="330" y="150" width="370" height="170" as="geometry"/>
                </mxCell>
                <mxCell id="16" value="&lt;b style=&quot;font-size: 18px;&quot;&gt;Data Query Layer&lt;/b&gt;" style="rounded=1;whiteSpace=wrap;html=1;labelPosition=center;verticalLabelPosition=middle;align=center;verticalAlign=top;horizontal=1;fillColor=#dae8fc;strokeColor=#6c8ebf;fontColor=#666666;fontSize=18;" vertex="1" parent="41">
                    <mxGeometry width="370" height="170" as="geometry"/>
                </mxCell>
                <mxCell id="24" value="" style="shape=image;verticalLabelPosition=bottom;labelBackgroundColor=default;verticalAlign=top;aspect=fixed;imageAspect=0;image=data:image/png,iVBORw0KGgoAAAANSUhEUgAAAVIAAACVCAMAAAA9kYJlAAAAw1BMVEX///88Oj7iWhw5Nzs2NDjhUAAqKC03NTngTQAzMTUmIyniWBgsKi8oJSrgSwAwLjPx8fFPTVH39/eKiYvKycrhVQ3hUwjAwMEiHyVZWFuhoKKzs7Tj4+OSkZPV1dbs7OxkYmVCQESEg4VvbnD0xLTupYytrK0bFx6amZt6eXtKSEztn4T31cn1yrvyvKjqjWz87ujwsJnjYyvrk3Tnek/88Or43dPogVkAAAATDhfmc0Xlbz765d3ohWPkZy/qj27fOwBx6YNsAAAMhklEQVR4nO2bCXeiyBaAQRZlE8UFWQSVBI0x+9Kd7nRm/v+vekXVraJATGfmpdvGqW/O6UG4h+D17lVIkkAgEAgEAoFAIBAIBAKBQCAQCAQCgUAgEAgEAoFAIBAIBP9Fnh76/fuzYz/FKXHb0Todq3957Oc4Ib5NOgX9u2M/yMlw3esQ+q/HfpRToWOBSiffjv0oJ8IzNdJOpydS1KdwpzGVWh3v2E9zEtxMmEo7msj6n8F3q8Pp9PnYj3MCeMTvJ0Sxk+/Hfp4T4LmPVflwT3Tau26Qedqd7USU/TBn2Ep7u12fZKhpTXdPu8v7fk/riebqw5xPcZV/K32Z7GUo7/nucdKbWqK5+kdgTVqWJ71q1Qz1ev2j09Mslrwmj8d90PaAY6hV9E3nGuuhbs8eOn1twtcCQqUf5VYj2ak4hgw1eXzTaurE1nt+7GdtCTvcjmo4z1/1oYnaU2dxsvd07GdtCdeQ8PGHx0mDLgGRnT7KA9Zin1jgbb9qmBONndBujvyg7QG3o1YHPp2zEYplTfvWl+vXuynLWYKPgYelkx/04xsOo9ZUm347f0ZF/47o2LoXgfSDvF5iv5+yZH7VL7z97fKKqPC1R1TcE/P+D7E7v+8Tt9bK0fOXzsPZLf3wBAN/yF6C9/B2D/eoNYLA2Tsw0oN1vsZRiqDC1V+dPl/La81jph8kkPbEwOR9ns5utF6lN7KmnUbJS7Iopf1ovCoAzr6gXrNae/YmPxpD5TWpScVQ+l2u3np1fXb+umquj3Yk0lodUT69w12/6u+9ycPBYf0rmZJaYjHqPa64dtPS+t/P39GWB+VT/+r3PV8LKYcilvbt7v3i/VGUTx/hnrq9df8zb34g5dP0pMsnP0zgKArDKIXjOMypwCAfzWN8lBfnvDDCH8Zhnofk/BuLpNb05l2lPkEToJ1yakrX5gU58mRnPVuDfjPTHpCjaLZev4yKo8HLAv2bfJ0TCWe9/kqkyzETKo16nbt39AWiJz3IX7lqQI5SM0vmDlaelJiqTtQVreUoibBhJutCmfmaWOlQScZjktafOpWEr2k3B1v3Jwvy/emaaTzLApkoZrwOpfGMqHShz2dYc56sx1Q2Wvvo39EM6zp1F+VdnitFFKpK+98PmerdqZipN55nwXCYzZPahcUsGc0gUurZfEkc31+vYmyS6GjEZOeujFAUHBESR5btiF56fetVl5Us7e8D6x/QsvZumy+3hPjC1Q1VURTVdYZj/kpiBinYo3RhmGuFJKWh7Y+JFeYzlqakhREg1CH+EOnDYMv9QNfV/mlqnSG7byr3ryHnP3zmN/zdzHVDZijmiLsUGO7adjfkWI1jooNIN8yZ4uLD2QWV9ZYy+jc2M3LTWSxVuXpkTb7V+/EkeSOjsYOie6TaO3weDG25gp2xa/4sCDcjF5/wlCE9rajzTTjEOktdO4x9bKkpLg2KiFsQGP64boXPN31cJE0nqDUaL/VF4wOdkTnUpLVzqFRV5Rr2il7cviC1eS62x+SF2uPmpRAYveAQ4c9m669Yi2P8v81XEjlm9vpltmeFt+dTbdJHPj3ITMVY1S8TYN/pofH0n4633dOoLDuQVmJStedhoZp4QyNjHhYFfwItQLxZhSQhYQF/gz94ISKS9vHuHlEFFXVRrHHD5meCrXxt3beTufsaRTqtJ/7PJc0cpfAGvzyFfrXSKL/B5KSVC0+RA0nJNR3TVkCj7rCeWj6XhVv/4aKvqfQ2vbkmlRM10zYu4Xsu0aKi5qk08LfGfs7/FSzJXzXZD+fP9LF0qU203j1edYYdp20c8EUk2Ssy+XLeAum0azSFwE8FSgyTfk5s2c3Jrmhr2rMe767JkrTVwqWSjOQm1uV4W+VXO71UVFvkh1zC59hQZJT96Ztl1kSjY5YWmilke4dpMfna6PReHCfx4Gd3ixE/FUKMSQBXof4dKCgOKIH0NO3UmXz54Bf5Y/AgOXGpdz/Vo/Y/UF1dt43t6HAhgIS6rl0IrcaNAvHYx0gs3BhkCOgNVRx7vHJSXU4CrP/vC/5+BjTfbw++CDPYLB0DKgHFcIZ+k5C32fJC271gXAjoNsIpnJ2MV2hZujBortrfZNo+lXq0tzeyAxKh69LKiijMzPZdOzdqQs4irQj4KhXAzn6hcr4BhXHR9J4Vu/SrKm1fflp0QQt2YwiN6+1/oX0jqQvpSl1IdXmhzYwJ4AkM/FU8w17ZTKOI27svlc36/fa9AB2y3klvaA59o1vXVWGDFXVJY6Oho0VCZd2QO+X5orZAZQVRIzLlDblmLJj009lNB154snot3ACdztiXNfcCoG/uWR9Rl8H5vr9vokRoSYVikzuNKnppoBMJlJBA20ZQieXe7rKj9dB/rZzsr8oW36xlHp+pW3Ed03RcZrKcTY05IR0J2cxkWXjOeCsuGqaE6FEZoh8NH6nD/ez4ujvbtXP5yVuWRuZUdJrQMNo1gzBJ0yRfOFTWpHUSs8CuE2zGcZpEFzbVPPxEVEQpMr5uItv1yZ3ViwQ0uv1IMdsekjJZKzpXUXpDUI29YKFzvASD6y7gTINQHEAZARPrHBQYJIOC4gzxDCUjP6ciV8uD9lO6Lip+ysSzoX04n7YGW1AhrIqGVGjD3zGo9GQjMoqRS0scUZ0TjRq/vAH+7URl+lBsqtN0XfFeSqoSm7bJyggEYr2a2ehpUsoHCvHy8noluJ6iRpGtlUUOc0KwJD2vyYIbkyUO6IL26i8ozUgPT7ybH+AP+RpB/7XD7mMx19k3hJ0l0Fapi7qoJxNvLcQ8+4BQPCuDacp3SphBpeqCRv/kWJVNkoPt0tcPmRBpJvFcDoQaFlW2kHfQYbwnFFeXZpzmKUvrKVegFLWoEYniWGLn2MCOEnS4MpjB1qApCR2OiUrNMqsn4BMKLCgYp1VCMRZscwTONcO9AEiJXKat7UEhEkyVrcQqJpe7A6wkLKAv5RqHk4IMLWlSgXCnN/gkWCkKk555ML+ASgv7BYMd1i+inwJ6J4g1pwctj/C3B980G+obEhKKmgjaIrtBiGgNZ/yMybM7EIdACSsD19BPsY6S2OoFyjwebRnNhramrImgVW9S6RzryhgxeT6vQw2FEtYAOrfucP8WJwFMMQuVhnvr7BRQfHEFVNrk+MSUcZQl9ZTL+TZkwuL3grAqu796lfv3kfLBMoLWe0tzeUURANF7oXbq+E3piRgiHuTN6lHZgwbYKD5Q1zdPpJLyNjqXiKm3F5VTQAy2u1cfweYUt/Bj0A3O6zUcFiLBlMslWClmoz1EStt99SQqqVxxuW3KpWmGbDeIrNdGqHTgZ+MgC0GxLuRR07TLQZ5TagwKVVhxpgOGg4tfLSLaFjugsAcTYjpVilHakMF4upUElcAqqEuSDcwBFLWSoJKQmqYqsYrJ4P5wZcVZWtCxVdsrqXgL42RmHYmsML+PWX/aXXLqCmFNBNf5iDEdLstchopefDBEHBH2O6x5NU6n9G81VQ5tImWDEjco9BHP6RJS8TrIuByjKDq8Jeb5W/rlWSGwpaWsMyJCg2ioo6t5vSzl9+bCaI8lrJz2pw0xuVWsWAPatYeLoUFd3Shq8ohfanbd4GI+Wshsp2Tpoj5TveEGq/kKC6HiiEQE7NrQtHIj6gDKUmaU1PXbXkkl3LKlopRrJfgFm011VqQYhtFlIg6nHm6/LxNyqCHi9WXolLgsCDcyWcJi61dtr6Qy7iWSUi+kbl81XQNm/JpIw670wn/LshTUxZWlA1CgXt6Fub7c7koqNZS6NlBMJF89oGloj65dWxNZ1rWPIqgHw/6YRWUu9SR8WQrQxSqcK9PRIopGkn/g1Yg/mfHexgeXZm74htu9bfx6UO8+B0Ftiw+KoLDfooghNCqX5ufzKy0AG0rjdRlvI+WZN2pjZB07FQszZhdQo0Jb5MahyW8fU227qXYMZxWhdY7itFK86Fdk8I3NDqk4PqPYlTXV0FEIa2TOg7mU+yO/jSqVBivdVlFqUpSuoRsr5pzQMnYLg1k6tqGqquHqdnZgv7m32Zog5LgZaqX87bCgqB1W+HDLtUZzcnFZbbmy5RazDDzJC6U8XXktXZNKoyxYduXhYu5zW2i4Sh3FvnyUZdkoH7+XOpJodJFlq7zxndD/Ht6griyuUhd8DqRSdzc/lxR8kLJSF3wSAavUBZ8DbChpWssT/DtS2Jnc7u7wj4K0jO+8tyP4p5CWsWnzjuBfsnkxEeuLn0sKBAKBQCAQCAQCgUAgEAgEAoFAIBAIBAKBQCAQCAQCgUBwmvwP7c7fWxJx7QsAAAAASUVORK5CYII=;" vertex="1" parent="41">
                    <mxGeometry x="124.64999999999998" y="40" width="136.11" height="60" as="geometry"/>
                </mxCell>
                <mxCell id="33" value="PyOpenSky API" style="rounded=0;whiteSpace=wrap;html=1;fontSize=18;glass=1;shadow=1;fillColor=#dae8fc;strokeColor=#6c8ebf;" vertex="1" parent="41">
                    <mxGeometry x="35.4199999999999" y="120" width="314.58" height="30" as="geometry"/>
                </mxCell>
                <mxCell id="32" value="" style="shape=image;verticalLabelPosition=bottom;labelBackgroundColor=default;verticalAlign=top;aspect=fixed;imageAspect=0;image=data:image/png,iVBORw0KGgoAAAANSUhEUgAAADAAAAAwCAIAAADYYG7QAAAHoUlEQVR4nMyZWUwT3xfHb6H9YcuSsIhLQiMohsSOL1OgZRGUGkoiLgSNPiAPuIWGSERiMJFIYmJMfNAYy4M+yFJk0ZDJXxZFwkzAglZjKNgE00XaSAutDYaWot3++XPJUNtpO6D5/f2+0Jk5955Pp+eec+6F6fV6wd+kiP83gL/+OiDm5oap1erx8fHp6WmdTrewsLC8vAwA4HA4ycnJu3btQhBEIBCkp6dvYmbGhmJIr9f39va+fv3aaDSGNd6+fbtIJCorK+NyuX8eaHZ2trm5eXh4mLRnMpl79uxJTU3dunVrdHQ0AMBut5vNZp1Op1arXS7XmgMGo6ioqLq6miZWeCCn0/n48eOWlhbog8PhHFpVZmYmm82mHOJwOBQKxcjIyPDwMPw1WSxWZWXluXPnmMwwQRIG6OvXrw0NDSqVCgAQExNz9uzZU6dOxcTE0Piq/5PNZuvu7m5tbbXZbHw+XyqVRkSEW0be4Hr79m1BQQG6qmvXrlkslhDGIWSxWJqamkwmEx3joEATExNCoRBF0ezs7OfPn28OZROiBpqdnT1w4ACkIQjiX6OhBlpZWTlz5gyKogKBYHR09N+k8Xq9FDEvlUo/f/4MALh+/XpeXh7N+KUju92O47jD4SgvLw9m4w80MzPz9OlTAMCRI0dKS0v/FMrk5CSGYUNDQ6FpKIAePHjg8Xji4+OvXLny+xxWq7Wvrw/DsC9fvpA3BQIBXSCVSjUxMQEAOH/+fFxc3KY5fv78SRBEf3//+Pg4mbLX/DGZmZmZdIF6enoAAAkJCceOHdscilqtxjBsYGBgcXGR0gBFUVhnSLnd7sjISAogl8s1MjICACgpKYmKitoQh9vtxnG8s7Pz48ePfo84HI5zVfDSd5UYjca2trbR0dHe3l6ypKwDvX//3mazAQCKioroo2g0GgzDBgcHrVZr4NP8/Pxv377ByhMIND8/393dDQD48OFDdna2P5BcLgcAxMXF8Xi8sBx2u/3Vq1cYhk1PT1MapKenV1VVdXR0+NJwudyUlBTyEkGQ2NjYpaUluVxOATQ1NQUA4PF4Ieqfx+OZmJjo7+/HcXxlZYXShs1mX7hwgc/nX716dX5+3veRUCj0vYyMjEQQRC6XK5VK8uY6kFarBQCkpaVRupmbm/vPqkwmUzBcAEBBQUF9fb3BYLh06ZLdbvd7Grjg09LS5HI5dP0LkH1VsM3zHfDjxw8cxzEMUygUoRuVbdu21dfXFxYWvnz58ubNm2QUk2KxWCiKBo4ivcPVtwYE2ygAALkmDQZDV1fXixcvYKSHEIPBOHnypEQiiY6OxjDs1q1blOg8Ho/D4fjdJFur5eXlX4A8Hg/8AAOoq6vr7t27dLrbvXv3NjQ0IAgCAJDJZPfu3Qs2ijIfMhgM+GG9M4Z/tmzZQpICAE6cOBEVFSWTyXQ6XTAUNpt98eLF06dPM5lMj8dz//59mUwWAp2yYjgcDj+ANaC4uDgWi+V0Oi0WCwDgn3/+OX78+NGjR9+9e9fZ2fnmzRu/7w2DFwaczWa7cePG6OhoCJrY2Nh9+/YF3jebzdAd+dutATEYDC6Xq9FofKtgRESEYFVarba9vX1gYMDpdKamptbV1ZFf12w2X758GbYrIZSVleVbH0hBd1wul8w168uex+NpNJpPnz4FDktLS2tsbKyurlYoFCKRiMVikdPV1NTQ2aMFq/DQnW8qXs+BMFeaTCbfl+SrpKSkkpISkmZycrKqqooOTWBKhNLpdDBzkmn6F6CcnBxY4XAcD+tApVJJJJLv37/ToUlJSfFLb1DQEZPJzMnJoQCKiYmBL7avry+sD61WG6x0BIpywXu9XuhIKBT6NiS/lK2ysjL4JgmCCO0jKSnJ97KoqAjmXEpRBhBBEDA2oFNqoLy8PFjLHj586Nfp+SkxMZH8XFNTc+fOHZijMzIy/CwjIyMD35DL5ZJKpQCA3bt35+bmBgWKiIiQSCTwF2lra6MDVFdXV1lZCUNBLBa3t7c3Nzfn5uaSKZjH48XGxvoNb2trgwVVIpH4NxeBO6Pa2lq4RVQqlcF2T263WyAQ9PT0BDPQaDS3b9/Oz89/9OiR3yOlUpmdnY2iaG1tbeBACiCz2SwSiVAULS4u1uv1wVzS2asvLS05HA7fO3q9vri4GEVRkUhkNptpAXm93rGxMT6fj6JoSUmJwWAI65imDAaDWCxGUZTP54+NjVHaBD1saG1theceYrFYpVL9Po1KpYI0KIq2trYGMwt1HPPkyRM4XigUdnR0uN3uzaG43W6ZTAbPUlAUbWlpCWEcCsjr9eI4fvDgQThRRUUF7Bs3JIVCUVFRAWc4dOhQ2LOU8Ed6JpOpqalJoVDASwRBSktLCwsLExISQoyyWq0EQfhuS7KyshobGylriK/oHnoODg5KpdK5ubm1YQxGRkYGgiCpqanJyckcDofBYNjt9oWFBZ1ONzU1NTMzQ3ahO3furK6uFovFdBxt4FjY6XQODQ09e/bMd9cSWvv37y8vLz98+DDZI/xJIFJGo5EgCHhwHljw4VZTKBQWFhbu2LFjo5NvBshXi4uLFosFtsZsNjsxMTE+Pv53JvxdoD+uv+6fL/8NAAD//1Nf6YdYoLKTAAAAAElFTkSuQmCC;" vertex="1" parent="41">
                    <mxGeometry x="35.420000000000016" y="111" width="48" height="48" as="geometry"/>
                </mxCell>
                <mxCell id="42" value="" style="group" vertex="1" connectable="0" parent="1">
                    <mxGeometry x="330" y="20" width="740" height="110" as="geometry"/>
                </mxCell>
                <mxCell id="14" value="&lt;b style=&quot;font-size: 18px;&quot;&gt;Data Visualization Layer&lt;/b&gt;" style="rounded=1;whiteSpace=wrap;html=1;labelPosition=center;verticalLabelPosition=middle;align=center;verticalAlign=top;horizontal=1;fillColor=#dae8fc;strokeColor=#6c8ebf;fontColor=#666666;fontSize=18;" vertex="1" parent="42">
                    <mxGeometry width="740" height="110" as="geometry"/>
                </mxCell>
                <mxCell id="21" value="" style="shape=image;verticalLabelPosition=bottom;labelBackgroundColor=default;verticalAlign=top;aspect=fixed;imageAspect=0;image=data:image/jpeg,/9j/4AAQSkZJRgABAQAAAQABAAD/2wCEAAkGBw0NDRUNDQ8VFQ0PFxUPDQ0PFQ8NFRUVFRUXFhUVFRUYHSgiGB0lJxUVITEhJSkrLi4uFx8/PjMsOCgtLisBCgoKDQ0NFQ0PFS0dHx0tLS0rLSstListLS0rLS0uLS0tKystLSstLS4rLS0tLS0tLS0rLS0tLS0tLS0tLS0tLf/AABEIAJ8BPgMBEQACEQEDEQH/xAAbAAEBAAMBAQEAAAAAAAAAAAAAAQQFBgcCA//EAD4QAAICAQIEAwQFCQgDAAAAAAABAgMEBREGEiExE0FRByJhcRQycoGRFyM1QlSxs9LTFUNSk5ShtME2grL/xAAaAQEBAQEBAQEAAAAAAAAAAAAAAQQDBQIG/8QAMxEBAAIBAgMECQMEAwAAAAAAAAECAwQREiExQVFh8BMiMlJxgZGh0RQzsRUjweEFNPH/2gAMAwEAAhEDEQA/AOIP17spFAAVSAFUAQUKAUgBVABVIAVSAFUABSKAUARVABQCkUAoFIoACqQAKFCChQCkGsNjAoAiqAAoUIKFAKQAqgAqkAKEFAoUApFAKACqQAoBSKAUARVABVAEFChBQoAApFa02PPAqkAChQgoUAAUiqAChBQoBSAFUCkUAoAKpACgFIoBQBFUAFUAQUKAUigACkVQNYbGBSABQoQUKAUARVABQgoUApACqAIKFAKFCCgAqkAKoAiqACqAIKFAKRQABSKoAK1pseeEFChBQoAApFUAFCCgAqgUigACkUAoUIKACqQAqgAqkAKoAgoUApACgFIoBQoBrTW88CqAIqgAKRQCgCKoAKpACqAApFAKAIqgAoQUKAUiqACgFIKAChBQoAIqgUKACK1psecoUIKFAKQAqgCKoAKpACqAApFAKAIoBQoBSKAUKEFABVAEFChBUFABFUChQAQUK1pseeEFCgFAEVQAUIKFAKQUKAUigFAEUAoUApFAKAIqgAqgCChQCoigAgoVQAUIKFUDWGt56hQCgCKqABQgoAK9F4407Gq0LCuqorhbY6PEthCEJy3x5yfNJLd7tJ9fM83S5LTqMlZmZiN/5cqTPFMPPEvLz8kei7MzK0nLojz34t1cO3PbVbVHd9lvJJbnxGSlp2raJ+Ewm8d7fcKZdNeLdGzSp5Um245MaVcqvcXRy5Xy7fW7+Znz1tN67ZOHw323fNomZja2zlY9jU6MrE0/JvW9GPbYl0bprsuS+fKnsfNr1r7UxHxnY3iOsvjIxraZcl1c4T78lsZVS/CSTLFonnE7kc+j8m0u4VkV4N81vCmyS9Ywsl+5HzN6x1mPqbx3vt6dkrq8e1L412r/AKJ6SnvR9TeO9iXbxUk+kknun0a6H3HY+oeme0zh6MY4/wBAwer8TxvolDflXy8/hx+1tv8AE8zRZpmbekv3dZ/LPhvvvxT9XGaNVPGz6lk4VljW8nhTqlz2Jwkl+blHd+vb9U2ZJi2OeG+3jv8A5drc6ztPzXim6FmZKVeI8WPLFfRZQ8Fx6d+TZbb9+wwRMU2m3F49SkTEc53a/Dw7r5+HRVOyffkqjKxperSXRfE6WtWsb2nZ9zMRzllZ2h5uNHnvxrYQ7uyUJcq+cuy+8+K5cduVbRKVvWeksA6Ppl6fpuTlS5Mamdkl9bw4uSX2n2j958XvWkb2nZJtEdZZGocPZ+LHnyMWyEF3ny80V85R3UfvPimbHedq23St625RLWnV9qRQABSKoAKEFCgFA1preeBQCkVQAUIKACqQene0D/x7A+eP/wAWZ5ek/wCzk+f8w44/bs+fZ9wtXjV/2xqW0IVrxMeFnRRXfxpr1/wr7+7WzV6ibz6DHz36/j8rkvv6tXKcZ8T26pk8/WONXusal+S85y9Zv/ZdPVvXptPGGu3bPV0pSKw7D2X/AKKzfnP+AjHrv3sfntcsvtQ5n2c8Nw1LKfjb/RseMZ3RW653Lfkhv5J8sm/hH47mrWZ5xU5dZdct+GOTp9e9pKxbHi6Zj1+FS/DVk0+RuPRquuDXur136+m3V5cWh4448tp3nz1c64d+dpZmg8TYmvxen6hjxjc05VuL3Utl1dbfWE13269E+vdHxlwX0393Hbl56+CWpOP1qy4ii2WgatPnrVrx3KMVJ+FzRnHeE99ns9pJ9u+5tmI1OGNp23dtvSVdN+V2X7DH/UP+mZv6bHv/AG/2+P0/j9j8rsv2GP8AqH/TH9Nj3/t/s/T+P2c7xrxn/a1Ea3jRrdTc+dWeK2nFrl+otu+/3GjTaX0Nt+LffwdMWLgnfd6Lx9xPk6XXRLHhXJ2uSl4qnLblUWtuWS9TztLgrlm3Fvy7mfFSLzO7iOH9bu1HiDGyb4wVnWvapSjHaNVu3STb36+pty4q4tNetfPOHe1IrimIfrxrp08ziH6LW9pXeFHm77JVqUpfHZKT2+BNNeKabjns3TFbhxcTfcQ8R4+gwjp2m0xdySlbOe7Ud10c9tnOb791stvgjPiwW1E+lyTy8/Z8Uxzk9a0tTpHtPyYz2zaoWUvdPwY+HNfJN8sl8Ht8/I7ZNBSY9Sdp8X3bT129WWnniYmq6pXVp9c6ar3vdCarShtvKyVai2ktl0Xr8H068V8OKZyTvMPve1Kb257Ow4n4qq0VR03TaYeJWk5uSbjDm6rdJpzm11bb8133MmHTzn/u5J8/hxx45yevaWo0b2m5UbUs6EJ48ntOVcXCcU/1kt2pJem2/wAfI65NDTb1J2l0tpo29XqxvaVw7ViWwy8VJY2TvvCO3LGe3N7vwkt3t5cr+CPrR5pvE0t1hcGSbRwz1hxZsaACkUAoUIKFAKBSK1hseeAUigFAEVQAVSAFe94mkY+ZpuD9J61Y8KMjkeyjJxo5Vz7/AKq5t9vgvLdHgWy2x5cnD1nePuycUxadmBm5WBxJjXYePdKNlMlKuT3ipOP1bOXf362211+D6PlZ91rk0t63tHXzt4S+oiccxMw8e1HAuxbpY98OW2t7Tj3+TT80+6Z7NL1vWLVnlLTExMbw9F9l/wCis35y/gnm6797H57XHN7UPv2Qe7hZVi7prr9mttfvJ/yHPJSPPUz+1Dy6v6q+SPVnq0S3vBEmtWxmu/ipfimn+9mfU/s3+D4yexLr+KdSoweI1kZFbnV4EeaEYwm25KUU9pNLyMeDHbJpeGs7Tu50rNse0d7N/KNo/wCxW/5WL/OfH6HN78fWfwnoL95+UXR/2K3/ACsX+cfoc3vx9Z/B6C/e5jj7ijB1DGhXiUTrlCTnOU4Uw3XJJbJwk/VGrS6fJivM2nd1w47VtvMuh9si/NYvzt/+YGb/AI/rf5Oen6y5H2f/AKYxvtT/AIUzXqv2bee2HbL7EuuysmFXF0XPtNRrTflKdG0fxey/9jJWszo52883GI3wOZ9pOFZTq1s5r3b+W2mXlKKhGLXzTi1t8vU06O0WwxEdjthmJpHg5g0urqfZnkwq1avn6KyM6ot/4nHdfjy7feZdZWZwzt2OWeN6SntHwLaNUtnNPkyNraZ+UlyxTXzTW23pt6oukvFsURHYuCYmkeDm6aZ2TVdcXKybUYQj1bk+iSNEzERvLrvEc5epe0fFdGiY1EnvKqdNcperjTOLf+x5ektxZ7W79/5ZME75Jl5Weo2KRRAUKAUgBVAEVQNYbHnqRQCgAqkAKpACqB6DxRxVjW6Jj4WLkPx1GmvKqUbYe5GpqcXJxSa5lHs+vxW552DT3rqLZLV5c9vq5UpMXmZhxGm592JdHIx58ttb3jLuvipLzT7NG69K3rNbdJdZiJjaXdcT63pOsYULbLPA1OuPuxlC6a+Ncpxi04Pun3W/bungw4s2DJMRHFWfh9fi5VraltusMXgTiHDw8DKoybXG2/m8KPJZPferl7xTS6+p9arBfJkpasbxH5XJSbTEw+/Z7xHhYOFkU5VvJZa264qFs914aj3jFpdfUavBkyZK2rG+35MtJtMTDg4Lojc7Nrwxl14+fRfdLlqrsUrJbSlslv5Lq/uOWes2x2rHWUvG9ZiHTa5xBpmRrUcu2LvwfCVco8j+t73Xlny9t0ZceHLXBwRytv56OdaWim0cpbqvVuEX3pgvg8e9/uizj6PW9/3h88Obv+76lqnCK/uq38sfI/kHo9b3/ePycObv+7luNNQ0e+uFemY/JJScrbVDwk48rXL1e/fZ9vI06emeszOS27rji8TvaXQ4fGWl5+HHF1mtqdaX5xRsnGTS2U4yr96Eu+/l17vsZ7abLjvN8M+fm5zivW29GhxszS8TWqb8SyX0CvrOc1dJqThOL2TXM11j5Gia5b4LVvHrT8PB0mL2xzE9WHxxqlOXqU8nFm3W1XyWJTre8YpbrdJrZrufWmx2piitofWKs1rtLp9O44wc3HWNrdCk49shRc4tpbc20fehL7Px7djNfS5KW4sM/JynDas745ZFGv8ADWm724NLsv68rUb5SW/pO/6q9dvwZ8zh1WXledo+X+Emma/K0+fk4bXteyM/K+lWPllHbwYwbSrUXvFRfrv15vX06JbcWKuOnBH/AK0UpFY4Ydrp/HeDmULG1mhNr++UPFhJrpzcq96Evsp+fbsYr6TJS3FhlwnBas745ftVxLw7p29uBQ537NRcYWxa38vEu6xXrtv8iTg1OTledo89x6PLflaWt4x4sx9R0uqvmSy/EjZdTGNqUUo2LpKS2e28fM6afT2x5Zns2fWLFNLzPY4M2tSoCoKEAChVAEVQAGtNbzwKoAiqACqAIqgAKRQCgAqkAKAUigFChBQAVUQUAFCChQABSKoAKEFCgFCqQAAVrTW89QAUIKFUAQUKAUigFABVIAUApFAKAIqgAqgCChQCkUAAUiqAChBQqgAKRQARVA1pseeBQgoUAqIAVQBBQoBSKAUAFUgBVAEVQAVQBBQoBSKAAKRVABQgoUAoAiqAIqgANabHnhFUAFUgBVAEFCgFAEVQAVSAFAKRVABVAEFCgAgoUApFAKFCChQCgCKoACkUApFaw2PPUAFUgBVAEFCgFAEVQAUIKFAKRVABQCkFCgAgoUAEVQKFABFUCgCKoACkUApFANabHngVSAFUABSKAUARVABQCkUAoUIKACqQUAFCChQARVQFABQgoVQBFUABSKAUgBQDWmxgUAQUKAUigFAEVQAUApACqFCCgAqgCChQgoUAAUiqAChBQqgAqkAARVAoAigFCtYbHnqQAqgAqkFAEUAoAKpFAKAIqgAqgCChQCkUAAUiqAChBQoBQKRQARVAoAigFAoV/9k=;" vertex="1" parent="42">
                    <mxGeometry x="230" y="40" width="120" height="60" as="geometry"/>
                </mxCell>
                <mxCell id="22" value="" style="shape=image;verticalLabelPosition=bottom;labelBackgroundColor=default;verticalAlign=top;aspect=fixed;imageAspect=0;image=data:image/png,iVBORw0KGgoAAAANSUhEUgAAAV0AAACQCAMAAACcV0hbAAAAmVBMVEX///8At/QAAAAAtfQAsvMgHB3t+/4Ar/Oh2fiR1vhHwfXf7v0guPS8vLx1yvbr6+va2trOzs5vb2+FhYX39/d3d3cPBwmpqalgYGAcGBnCwsKioqLi4uJ9fHzKysqu3PlYWFiSkpIsKiqxsbHB4vqampqMi4sVDxE1MzOKz/eRkZFEREQ9OzuT0fjM5/slIiNRUVFmZmZmxPZB1ztDAAAIHElEQVR4nO2ca5eiRhBA2RpJNsm6oLYgD42PQVxlfeT//7hUVbcMYuPsGcMZMXU/qDT07Hptiqpu1HEEQRAEQRAEQRAEQRAEQRAEQRAEQRAEQRAEQRAEQRAEQRAEQRAEQXhmXv/58y5+qs9+Bw/M197Ll7voffvst/DA3OmW9L5+9nt4WH77/W67L18/+008LNpu76O8iN1bsN1vf32Uny9i9wba7oe7/y12byF220TstonYbROx2yZit03EbpuI3TYRu21yp90fYvcW99n92ZN5hlvcZZflNtr1k+lwPeOXajDwHSfOQo/bw9Qc4q1Gw+lKT7/7A4PemYbZ+TDfx86zLEmdrnGPXS23wa46AQR5ADsSOgAAb44Pge+M8AkyPmaLDUEALn8EBzAcaWvML4ck3scXirdXH/t/fh532DVyG+wewUUfuRvsHLLrLscQuW5ehNjmujDA1jW4Afp1I6BPYEnycVc+x40J93aBXvvg5gn10sd1ifft/tbQfpZrt9tHNSvHm+Qu+GzXheIYkCF3HkVusMCwAFEwVSoLXEiwxyrLsmTp8sYKe4dpqPegXTdaTvCz6dzgfdfu/h97eynXbnexhKHDWiHmJxqSIbjRxnP8wA1GGEkPeUSHHiLaYmIczXicU0T5CZ+GebRUZDc6KNpnAkp3eM/uvvfd2v4mt+mq5lHM9Eq70OetYI2tkfGp+EwvcAibLm4URdiW0tB19BD2yW6wxYMrn0JXeMfuvvditVuR25gzePFiOM9LuxgglLG2PHtSs2Q8cd2z3VOgT/5YfybOjI/3zdam/BQ6w227+94Xq90fFbkNdtM5X/Xdql3v0q6a8iHR2S4O1YDCCUUQoDzC52Dgm61ns4tyrXarI7fBbppjzMwGfbhh9whRPpr5S2PNw7Bw4Nw3NKOVYsLiWe3uuRK7tnsp1253EpQRtMluWDvjKYro4qOvwzR3S57U7l5XYld2f1zKtdpVeZSPnWrOcG13gqObD9WRIcHUYJ7ydc4HnaT12etT2t2bSqxuty7Xahc9st1RwNd7q91dxHbxEhZheZZSJREBbEYpieSMbIongHpKu/tzJVazeyXXPnaxYohSJw7wKffsdk84aPtOWuR85etTzUC9AlBOBlTN+Rgq1s4z2t2Xldil3Wu59riLyVWE+VVQ5BGqs9rFFMENDgHsUOII7WKCsSuoNPYcVeCYXwZRUKhntPv6Vold2LXItdv1CggCiGIv13EXtF3geIoBgDwN6RAcnXPAurhfrCjmKn97wGdv9zYFRLM4ZPcAMG7BQJvY7b5WKrGqXZvcpjmy1XpNc4s0e+h4SRhSrhWGPI24ShKaxXFmixFtq/5lT37sj49j3a6SMCHLq1D36hBWu/tqJVaxa5Urs+fN2Oy+XlRib3btcsVuMxa7r5eVWGm3Qa7Ybeba7mutEjvbbZIrdpu5svtar8SM3Ua599tV6a+vOaSdWlyr263LPdttlts8Aznr+7Z2Fdca+nC62P/Wb3alHTq1+lOzeyXX2L0ht8GuN+EJSMtazYlz3gp9XsY4w6uaB+4XQ1Hv3GW713K13e835DZUExEsp6MTUKFQYwSX+e2l3RNEo2SsV439y0FNXNgdHa0nx+NwYdcil+3elNswA6nFDLhGq1H/+mDVbgwHU5+lliNrdo+WP/5QVO3a5JLd23KtdlMItJns4qy3U7U7NoN9ClvrsRd25x2ya5X75cv3n7flWu1mYCZcUsjpMeFg4Cc0XxCbm2r6o+GaS1ttV3GVfDKr6isa+6abk26H69RJaA+AStfDha6MC1g/9g06b3Yb5KK923KtdoflrQd8isc6TiRm8oacqR0vqtESsbY7hIlDY9Z8LEpRXJk7vJ8IYcd/LuMt1Jvzi3oC8lCUdhvlvovN7rF81xGdvcZuCLScNma7J5inyl/ScWx3BUuKJbPq/UwDFq4AxqkX6lugaJbN8wv6VDwP/xXvob8Dfrb7cblWuwWcp7M29OrabgoutcxodJLd9Hz5mwLMz3213RU/4sDXdhPesaGmrsTdO+R+zO5KRwAFgba7K4dsgsNzqTNibdeEYh0m9FUNhzM1dcTuPXI/ZjerlBR9GC/gbdlBZUssJ+hqpe2avKuzdt+9cH3A7sy8arC75iUgDS39VjaReAO5OtvdcerbYbt3YbM7L69qeSVnaLQLea3CVUsa22LXbndcnvisIwZzB1Npd3FpN820fzUwvhIS+ySR4T+3G55nCHw4OJQaTHRraTcxtRgtu3FGxrkZpQ5mWY1carsTfR6I3RJPzxOcq4MB0H0heCkr7ZpCwaPEjO3GOt/dmIC9pfVfbXeri+OZycjELk2EbUhvUtoY8JTOWzWx5DxrRENY12oTrttW4FK2MeNFdm3X587e5tru8NFvRm/td3HmALvjAcxQxBphcoRDxS76O053QLeDaLumnhhhv9MOzJCfmM7HExTXdleQHx96Eb69Xx0KNzwPYN49fWcniyt2ncERm6YUDcwc2UJ/2yemG38LU0Do6L3Flu2Ad+dVuzh44X9ql2/cX8N5qlxdrymohkkCSzu2mCtj7dCHnmZo/Rezkv9sdOmEo1u0/ntkYXJr7y+xotitDo892WilC7/2htnCYhrYAsOj0wW7aoG5R7Ru+V9pgy7Ydegmkce+fDXQEbsdRey2yre77fb2n/0eHpd97+U+eg1f0xaIv77+cRfy28aCIAiCIAiCIAiCIAiCIAiCIAiCIAiCIAiCIAiCIAiCIAiCIAiCILTHv9KErQNqYlzeAAAAAElFTkSuQmCC;" vertex="1" parent="42">
                    <mxGeometry x="380" y="40" width="145.42" height="60" as="geometry"/>
                </mxCell>
                <mxCell id="43" value="" style="group" vertex="1" connectable="0" parent="1">
                    <mxGeometry x="20" y="20" width="180" height="620" as="geometry"/>
                </mxCell>
                <mxCell id="2" value="&lt;b style=&quot;font-size: 18px;&quot;&gt;Data Sources&lt;/b&gt;" style="rounded=1;whiteSpace=wrap;html=1;labelPosition=center;verticalLabelPosition=middle;align=center;verticalAlign=top;horizontal=1;fillColor=#dae8fc;strokeColor=#6c8ebf;fontColor=#666666;fontSize=18;" vertex="1" parent="43">
                    <mxGeometry width="180" height="620" as="geometry"/>
                </mxCell>
                <mxCell id="23" value="OpenSky Network" style="shape=image;verticalLabelPosition=bottom;labelBackgroundColor=default;verticalAlign=top;aspect=fixed;imageAspect=0;image=data:image/png,iVBORw0KGgoAAAANSUhEUgAAAXMAAACICAMAAAAiRvvOAAABEVBMVEUAADP////o9fV5DTXdAKEAAAAAAC0AACgAAC9RUVEAAB4AABsAABkAADEAACkAABXa2t6AgI3BwcZPT2UAACIAAA96eooAACNFRV7s7O4sLEsAABTj1tGrq7TaAJlWVmtFRUU+Pj7o6Ozg4OTz+vpjY3X29vi1tb0AAAumpqY+PleMjJgkJEWKiorv/f3S0tfpfsUpNzQPDzlubn/wrNg0NFC0tLSamqU5OTlgYGAMIBy/v7/IyM5fX3H87vfiQq/30+r0wuLlW7j64vLoeMIcHEAAFQ/V4uKGkpFycnLri8oUFDrmbL3untHiR7HgKqj42O3zvODlX7iCgoIeHh48SUZZZWNve3pKVlTBzs2cnJx7mXn9AAAQ90lEQVR4nO2de2OaSBfGpRsBQcALStDXKxs0moY2bjRpzG4vm7bZ7nYv3W6afP8P8s7ADKAyyAwpTSPPH70o6PBjOHPmzJlj4YdCrmz1QyFnnrVy5tkrZ569cubZK2eevXLm2Stnnr1y5tkrZ5690jHnBf7eWrI7SsNcbNerl5p4j63ZDaVgzp9YHMcNT3LolGJnrhgmBzXUlHtt0eMXO/PyiPNUFe61RY9fzMz5U4ScG7bvt0mPXszMJdzNOe4qt+hUYmWuSD5yKuPC67K+67eIlbl6GTAf6UnP4tu90bLT2vEBgJW50QmYO3LSk04r7gk9lek7H4tYmZedgLmZcBAtN23vBFveafeSkbmievheun8mYq5oCxvfpfpOhwwYmfN1yO/nve5vEKGaoNsq2shHzs122rgwMlddM/HL3l4XIvyQgLk2MgNrdJAzp5cB7cTLLmAOrcvRdu+vvAghT3LCIxYjcx3OiJ7tAeY/JUKoV8PI7QbLdz4aMTKXlwDdHtQz8I/WNuZq3bRDzJM79I9SrMwtMIJ2IfPfE/Rz8WqIkL9x/9zfabeFkbnCA1PxymX+cTtzRXY8y/LTXhc+FtZumxZG5uIRgPiHy/yX7UEureMitz92Pd9ytz1FVub8vukNoR7zQqyvaMxc5G/g0V1gXIY73s1ZmfcAxtcu8z8BTiGOOX/qjp9vfOu/49EWZuYHpjsjQszLMYcqumvMPeTdnznO2fVuzshchebiT8w81t0uu8bc83FcZz5f4UjBfA8zH2rkI4UD17J4x0IfZ7HbvjkUK3M7xNwi2xbgmcNu/nEPWxZrzN7Wx6LUzIHfsiSvWbSXEPlvnmV5tfORFk+pbQtgXpNIx+lTaFm8yZM7HWoaKdr6WJSaObDRHZKJ5icmOM72jRA3ytMyCszMD3y/BTCfEjqvUnaGHPbjoTGvNHZ6TQ4rxZzIGxhfA4NBWMc3prCb/+0bc5vPjTkUI/O6Pw/9h+MuoyeWimha2E104yynuz4BRWJmbqN4C5jNT6JDs8YCdvNnfiTsIB8/PTHGFVuAuecB/koKcSmq6QfZ94AxnybNgnn0YoyfK6AL/4SZR09DhaqJDRA05qOdD7P4YlwnksD08hVmHu0AapWhzf3VRZ65Q+GyCLL8qLPrWNfmgBf4BjG3I5kD18b3bTjONJIj16oVpxoTwtkq1RAetIPEvO4PgHa9NejoEJc0Aib/pdvN/+K4q+QroJKbCUmcZ22Vos0605OH/KAwMhcWgCha969EhbgUHo6gH5GbWE+OQDzxVqvj157IUgTLzVp6wNBZ87hmwHK89phHpuWqTXCAa82BZWlSdFq+ly6lEe9FEB/ulJeROXAWTe43j3lkWFGuDT2npfuS69BEWVIy9/ciPOBdTqy50Jo19JzFZ5FhRaUA7gkcZLu/cg5VyDwtcwExnz4+5jroxy/JzIFpsbnfXctix65QbyitbdEs7qHnLbEyF6am/bPHfBTBHHgt7hS0+zdtlCUtc3R+LW5d/BuLlbkbGvfseUT2oSJBc9+Fkd4qpdOXlnnBqDucuUjj339tMe9VlC2T+4fE3I07ukHzJe36Z2rmBV7WtAcdTmNmrndMN3sukjlw3+EIC1zzJFswVpSe+YMXM3O4PPeKxFyq2e4yElel7nA5c7LARNMdRH9FY6jCq4JhGIKgigVFNqFT0/3bDIKJiqomopgzjxHsy26MqyaJgtRW92fV6WIxrV62tPHEhrb+l9AKkqAfNCftBKEnBuYiLwhUUS1F5FXQBSinquAk8D2Cyqed4bIzBy449MAB82Jrugxvo+CsJXQUu38FCURy0339KB6kCEjodeRf62pI4fPAExO6alVvnFw2p9MPfOhj1r6GD7/A65reupzNDnpHsqYnvLO8IbeP4NdMq7OJ0Naph6mwUtRvKcBxsvs7N7Qwa9sMtrC8ev2a6+ErEiBy8JYd21bjqgm0QPPIZlj1oEiMIM5mGJUiNC7xFkg/W0k6avba4e8pT5qTsn9CveO3l7M6vcb28gPgpNNFaA8yNxzNZInd9qWoUyTV4Oz+ldsK5+76rIhU+jRH1XSKGI0MLq9/9onjOjFjql7lyHIkRFE4CGaZqlYNni/80TK8aVbIAGg1f44kSFNz7YPtzokU22kVQ58ONxs02m+zUk/BXJ1x3B9eA+6Ka0L9oV52L4cH9uJTvzRwYlMbWzHIOW7hIVUKHqkyDJT3wgBRxB0VfwgCEsLUfWEqFMRx1V7/WPdMOYaeqi0ILXImZTYLk4K50vYv+TCaObgct0QaxHl41j8z48oxIDYkVbwz1ab33wkvtkcrByDmOnrVv7myZxUcWS1UCJ9t75Mmy+C+Rt4mTyODKXskBfNGAInInBt+gM3SwNVeHAI72iQ3EtMkyPE6roAMUF0QrNUDUPBWqnn/9W9u2SNdKe7HfHoz+vkTG6OYk8DNqhNTNWPE7p+PQ80hMwc9UoAp0V5victXVIyYHuUnLmHm+8KaYe4gaiTmThxyQiYIz1uxJwFVGTIwmZmPa6FvjmPuQudVYBWtWWzkiT9yOJLMGXr6MfPTgEZtdiVpGrYOJOahW+RM93lZk056ixDS2ebozp+EeoE9ak5ESZPV1qwTvhML+oR6VuaNUM2cLcy5FhiilKINjHv8Z4pyo9EoztCdKjZC0rBNwsz9yx7xshqe3JCY+xodtQXo1YCJkdFoBT2ntT6QioUA+bI3lsBZ7mlgRnAUuvoFdU9nXfdf9evimdsw0aJhJ1vLF5BZJ8xDhTWHsrde3XELc3OyUvhU1Cb4AVjfKayUfQ+xMtFWWyNKYmBZq7Q2nTFf8ZRbkcf830GpdBbBnFs2vhJzczOnIp75srz+saqMLdraCmrDfwSm4822AIfG/9B9Su+FjXljbZJweH7o+A+iefG0uDYcNoWvwtyMCJvFMl+ONz1qpYHs1GrFKsF3owi+iVDAEOz4SdWGmJgbUa70j1gR73Gq8jWYn0QcE8fcikzgwxk1Kx1d4fFJxCp5vI6hd+jSX1mYK+oG7yer2uDekb4C814UjTjmhejQio66UHhTvIzt9T45f0BU8eO8tZjKiliYG2uz4XXiUdgL43tnPorO2SMzJ20gg8/gGjrxCp0zjRsg/WGNbsWbgbmirdCMAr5JfVG8d+bRaadk5kOiJ407UZATg7PBKvHet4SNLNUWTAbmK5P0yD6OFTrOvnfmhJ1jZObkEia4vy5xp1Z0dM5pfOxQGSNPMy5euiFq5oqihaaLccRXu3r9vpkTnAUy85g67W3PuPjFOXG3Wm5L2RDQDI6qwhglc1GSxNAIugV5GHoHME/SsKTMSTeQyDwq9QnLLS/GBYUipWVsIwIp6G6R9lRFio45fxKOsmxHvmrUzSQBoaTMSRdJZB4T0vQNOv7QBmrw9liKjqIACwrjQsVcPAoTT4J8bSStbYeekLlJemaIzOOGOfylqNYmP4l/lkLiUbgypubBhqiYwzD44fk5epxih89ACPe8f+7EdzZPCZkTawwQmcct6uDK4s3VgHGScqfokaAx6DTMYTefD0olmm7uQ3cGpTM7QdnuhMyJqc4k5tG7npB4lGyAZqLYYCT5SRocrqHIBKBhrh5w3NNS6ZoOObIu5qDUd2LL63hKyJzYBYnx81jm+yvM8RCaJNEUrwVSTEXpmfefhi3L8fExAXXwjteo+2VO9BOIzOO+eY05OmV7YwvB8EuRA8XA/DDE/Pj25j0B+eHN4XGYef9emRO71X0wR/sGYpIUQg2abnnwNsXM3AM7L36+/RzV049v3v43vzkOGZfSd8R8+NCYz0PMPz//8u7FbVQ/f/v85rYYNi7fE3PUz5PYFsz88uvZlk+Ds3nItHx5/vzFWwJz8E6YeX9wtvxOmMsJXB0s/GMqFBNRWuaV5XIYNufFFy++YNty/OT2nf/v929fvH0fNuiVSsX8Tpjjz0iyYR4fe/L1fEXTssyAOYD+fu6b8LsQZvjO7YrjYlmW/Z0wx75Ikr13bbRYRLH6T8v8fDC4DjGHLiH+123x+fPnxXfBG/478ITh2eDse7HnOKyYYI8p3o8auQGfIBrmMB3/uuTNQ6Mm/gD5i5soJwaesOyXBpXvhDmOKznbB1EVBXNpakLQMIf31HFTPYH+B7TO9ssmchMc5h5/NxicJ/lVhYfAHC4kutpe6AFHgWlqulPFuHRg54bzuc98Hfrxf1HIPeYX8wsuyRrWg2COJ/RbI7Sil5pNXEGJFF38vB2Ez80o5hvd3L0z/jnc5XYD+SCY401NW1FKyFOkCeXSrhNpvdES7R1ye3BAF3bx4y9g3Dy+ma8y95YMneVyUUhQ9+BBMC/g1PpFPEs/NYbqR65o10N5XRpX/Y4e6tG3N+/e3bz/PL/9732os1u4mw+LspSoPpSfYP5NmftZU/GL0GMUyCWuoESKKdcCd/RQN39y/O79HZgRHQZeOero3sGJxxgMtfdNmSsSGkXNOOsi4ztDqqQaLZacInzd69b8+EnYXUfy2p78d0Ow80WoeZMR82DdtRKR4oik49+tJWfORIopXxFnVSZYnUPLocmrqeC1yFq0Jc2KuX+NwEkntF32fyqYslYME3Meb3HbCh0dR5NEiRYYCYtdmTEP1tuHH6I8RnHsZ9pQpogy5kLrfipXLHW85h+dD0sQnmWEd2Xw/g3IjHnBmOFr5KrF9dFI0ZUl519d8otzxbjPoh1s7iBS97MsTKrN+Nigc7OGd5ooNOpNET2+2TEvhDaGWpcNI7AfiiqrwXv0FcZZ9xONQztqfozAHkprMQtU5g67RRw3ao1lWRt/qELTimawGTJf2TNlLibjsqQbhi61jVkos8qmKNeJxMpcKa5t4/sRk9/I+p9QVocKdjhwpuNY6A6gLMwsmRcaq0nflVFn0eksV/aY2B+okbMyVxrAnDnre+cjBIMsdcrCOeOoPYsoOpYp84I2i2hJWI7AsOmfsRa3Di5keTaYb2mSde5G2wk/BECSqETszv0mzAvGUeyu3AXZeY8R6+9ZAJ7/lkr90kUc8U8DcMi1v288+cd/2HyCUIgPZ1wRizaiNZ4AMboJsRlkCoqbbC4k8w1ytQ2nxbLznLmfS+D2z89KAGn/kGBhLq4BcSCbup/D3bmdtU8b4uIgXvY7OciKCl8EiZGil9Afn/Pj7auIXOg39EXkpnin3mCs+M1aL1cFpC8g9FJ/cH64XjDCvPjU77tvwoTSJn13UORWuLrB8sAvgqNIC6tSjVkJ469qQ2cW+kp1shw62ypTl6fWsBP98CiGNluuXeBwcUSanm4Xc01LHgzfVskFCzr74PzT3fwCan54d90feK+XBjDPLg4QWaIkXy5Gy9qoM62X5dCDohjl+J8BcHflr7QVvLAVkFHWdJK9UlRJq09HztC2bdNadmYnbSNFVXvmGguiDh/yp2clrL4v/5US7B4HrL8doqjAGZYkXUhddOwepPCCJGttoLJkqOl+RiBFPa6xW4TpeuAzXlXfTbIbth50Sc9vohQ1cwrSBDpS1l2oa/vAB+euH7lgLlr1iJWGOXCkvJ/Xdu5KA2xUwF+DwfWh69bWrih3wu+GUjEHPkFj5k0a7crF4d1TIDCUomlE56j8oH8+5ZspJXNYl+1qsVlbzK7N5O2FC3dUqZkDD8YoG73pqOLVs7SBL9VsNaRUlTYft+6BeQF7UposSeW2Bry7vIfH6X6YYyl5506g+2WeK4ly5tkrZ569cubZK2eevXLm2Stnnr1y5tkrZ569cubZK2eevXLm2Stnnr1y5tkrZ569fvg/i5eik/DlRJoAAAAASUVORK5CYII=;" vertex="1" parent="43">
                    <mxGeometry x="8.160000000000025" y="250.10169491525426" width="163.68" height="60" as="geometry"/>
                </mxCell>
                <mxCell id="34" value="FAA Public Resources" style="shape=image;verticalLabelPosition=bottom;labelBackgroundColor=default;verticalAlign=top;aspect=fixed;imageAspect=0;image=data:image/png,iVBORw0KGgoAAAANSUhEUgAAAOEAAADhCAMAAAAJbSJIAAABX1BMVEX///8JH2IKaCbUt2qoewDcu22neQAAZSOldgAAAGHVuGoAAFMAAFbaumwAYR4AYyEAAFUAAFAAG2DavGq2kzq/m0UAF18AAFoAFV6hbwAAD1zev2ujcwAADlwAE17RsVoACFvNtGcADmLBrmO3qV/KzNevfAChnlbOr1/t7vJ1e5oAB2Lk5eupolmGkky/ws9NVoGztsYxcS9Wfjp+jkk7RnehpbmFiqVlhEDJqFZTW4SyiSZjao7Y2uLGrGlwiEQ7dDKSl1Dw6d3p4M+Xhme4llAUJmZmX2Wbn7Q8P2N6b2XSvpiQla0vO3AgL2qssMHdzrO2n2hLSmTawoPUwJ3HrHu0j0GrlmhlXmWPgGbgzJvo2bXl2cUnMGO+n2N1a2UAAEbdxo6GdhF0cxZBQ2OVhGfDnDZecBs/bCB8dBRmcRkAAD0bI1ozMFNGO0xXRUVmTz1wUzDAs5mUdACllYDl5oSsAAAgAElEQVR4nNV9iVsbV7KvUCO1aKm1NEgCIQm1liCJfV+EDMIxxjaLjY1tvGA7yU1y52Zm3nu5///3quqsvQiwYyeZ8803MUJI59e116lTFYl8+3X47umLy8vrBy97vVFcvd7LB9eXly+evjv8E779m67Dp0+ue1NT5XI5kUjE46NqxePwCrw+Ve5dP3n6Hwn08OnlBEDz4gpbcUQ69fLyPwrm4YtrIE4iBFucrTCc5anE9X8GyqeX8SkP5eLEkXEUv15vAhf+g4iXiHvfWJ6KX777qwHcvJ4+0GhH0OK9Xj6/0zYsy4BlscX+abR38vleL+4BCrR88PSvhjFsITy5U9j3aA+hGZZBiEIX/Q6A9kYTiqnjf0+Q968lPCRdb2LH4MS6w8J37kz0lL6Nl8uX9/9qSJ71YrSckMQbndixvPsfxzWNi5iU/kmveZ+BtTMxKkmZmOr9bQh5eDlVlvB6+bblwTY97T57dfX44cWj9yP1MbbqI+8fXTx8fPXq2T2EquG02vleQiPk30G53n8wlRDM2csbcrcIzn119fBRdWyuXi9VC47jjMjlOIVqtV6fG6s/enj16h7CVByLIOOckNd/Ncb7L6f4E0+MAvUsiW782dXrI8BW1WCFLqcKOI9eXz0blygtoORoQjDrg79SICU+IN+OIt709dVFfa4+eRs4DWahPjd3cfVsWpFyR3BrfOrBX0XHwwcMH1izCUPx5qsPR2P1wp3BqVWoj408fKX41ZjgdjL+F/HqM44P2FMx56vXpblbGfMGWlbn6q81kHmuWxNTl386vidMvwC+HWbRgTmffSjMVb8YnViTc9UPgl3BTAqM5Rd/Kr77o8w+xBU+6/tHY3+Aep5VHXv/X4bCyHil3PsTWfV6iuPLcx9z+t6Hev0z4TnZZHH4L+v1D/emuQOb5xj/NFZ9muAMyvWLNf3s9VgYdxZu0jfOWaSzIiCWQp5Odezi2TQXyAnOqvE/JfK4Jg0D9oHz5/Szi7FQKLmN3RsgZpfgs1IcYPcoGfaExn6SGLntmLr+5vjecQKO7gh8P4XjG6lFIvPZoQALG/hpe4z02fnIfCr0XRKjxcUxEf/GDsAlk0DOoNb4vSH0g5XsRCJhlOG/beHHnTM2TfUjEcGwPn4tjF1weQRWpe+eevIN8R32yoyAbfrKcePDUHywbWDDjWG/nlyORI6ByEn51lMGrXaUnfRjfAjfhKvNyFh++c0AvivHNQ1jTf9XteTdTCWracfaSSSyVRmCMAdU+zgfiRQIV3ElElmmh1E8iczv+SCOVOtXkoy0g/I34tRLpmIEAa8fzfkJ051fyamfdiORlSH2oLoXiZzkziORLj2j4iYXySpIZyfkb+bec3FkZIx/G059QBwKKpRJYJBBEVLkXEGsRSL9Iaom14l0klV4/xLBQXJ3gdxOEWT3lBEz5fl4Z+zD+DhXqsSp30Cnsk9OMB90+tlZPbDtAiKMHEvtgqomHGGlC4hyyY9AMHoglS3G0DlQP13CnFpq+WS4fvRsmp5tnjg10fvK+A7LnEMtIuDjsRATTTQE7hOohqsaxA7o+oJiyLTHqZEiAF0iyM5RRGlXjYz07ZxT41/ViXtHRiLOOHT83vsgAUeYfgTRimxxiENVDf5CrJMafzbnxUkUQva3KVA9mwF5rL+/R5xq9Zj1/4r65ukUM4KMQ78fYiIKgHADTECkm5I0DVU1KRDQ0m735ByYsoXvRfO/lEohSUmPOpPwKbUgmzhj3zNOJdMYn/pqqaonU0oErfGHY6H4GMLd3GZEyNJIkXk1TjXlwYmac7k0WaoVP0aYU4BM2foITL1VlO84D1XDY68Zp+ZJK0x9pYiKAMYTO8Sh7qnOoZVUtigfNVJidxJtQGSPtpcEg5dLJQt7x/p2nRGAoyw9+a7wLPpdIYT0Y+QoPFSpcE7d+YoQmaMWJys4/qyqcehkdqvfWToTYQUhzG0gwsguMl8RAGwukVbRdGppqyMUEOpUErccSCD8j/umKZDTFc1PdVJa5FKoPCOI7fjXcuEuWaxLShREUHuyqQ3aPDdg8N2nsN8+/7PlmqZR5pd0ipSySf4XyJ3knTPlusGdmWREOnFE0bP+no6XCSOo1K8DkcngKCnR6ceaCE4mN8X+uQV0TunHzkkWveqNCinXztLJbjGpWNnrWTvOchfpA8GFFEKyji1JdCcHP0aOa9pfjT0mfWOMfg1G1QBa0681gIVlZKvlHBquDUchbO3mag56nehoOnu1ZKrmcTOdf3ohFogBEWFLeEPg8Cg7WnP0IISvOaZvvgbEpxrA8Qtdx6CRjpQqZKW7TEwgao/sJfHfTrIf2UQ+C6ZMCz//FqJCnLOTlrAOpa7UREDALtvInjeHUL/QIf4Bo/FOB/iT18wnwSj3cyOlPREWMIQcbClVDNWFztnP/wz7hVNLiZdz86iS6Z+VChIQZbvg+6PSI0uD+MWm/1ADaD3yZWIcVOlbqdxSpPPR8SMcupxHP//r5mwxMkefuW5J5JPO8kf4v0AoXeUQWajxpQ5cmdy/th9ghUWFSL0I2ubO8VEWnTPUjN2SfyveVbjI//tmhCiS9JxKaGwi59nasghBwHdQ4lh9TxCZ0Yh/GUDy/hJoJqxxDWB2i7ssySX51n43Wywgwl1/9Opbkw/z/+dmhJPLLQo4ssyP7+aK0r11Kh0t/mRUtNrkwH1RpPEA/5Q8GZBBBTC5JXiR+DSycs7evrJcO9ryZyC05UxWK7Vi8UP+/xaLtUpp+LHNZKqERn4FPxMfngpRUvBVHoikbsi7SXxBvEiWPpEnO6hp0SQ80Xl+Esj4NJXammePuxSes5isFFPJ7NHy3tbJ5ub/y7863zze6u6epZKpYmUYPYv4kbvJGmoaMB4cFnKNBrF0QXaRfNTyZ1t+UqNxiiamHyqA6Fj3s+L54zeCGavklpci86e6UZbPuZjNLm+d9zvic9/m5dPu9M+3NpLZYhjdnWqrVSwJa9EXLk1uRTmvsOqvybuZiH+BQqWIN96zfJ4MfkM/CQCZQiE+7daQs0aKAXI44JfvSTeOrzd5X6asv7mbTVUCPOukmPmojfT1UBH9eg3iHHk3FC/Gy5+HkP6G7MT49wogarelnIPahn1nBfmUeDawxVK2stUKfvCn/GjwxdZWNTssK4fCp2wQConyfsCB+x7dcAuj/vhnJRmZELYpmlAAMQCMbOaIV/uMJ4lPg+nqQjHbDYEH63l+KvT1VjcV5AJcaD1kMJxkvnwrJx/oGEUa7c8VRRJCingtV/cmUkiyzSSySos9c6eGisdPvuTGyrCPNoYghLWykQyxpinl2gPrwNu2jrmksA1U71lC23yGKDITg385/sjzYFMo+FtS3KsY4h3nRjyrkuv2h3+0lb/BAenv5fzMqqdCCOBJMocQ5bYK78dl6ubOhv86IYRQV6MM4ha9g6nsLCZkql4VWsltdYKfePj2zafnM7iMfHkH//P8zdv7IVA73ZyXjs5pX6SzCCAmK4FX+8pA1x9OC1G8q1WkgIIJ4atATiZLov4R/5lrsUyZ/sRzXT8+AGfMtNtknG3btvKJnZiNVTM2AH3+NsBYgNGbC85tsuiM+GdTPFpNMpi2IcM/dbfzRcy4UnWFdc+ft4eVpGxaEb65Jf1FsZnk8rz3o+6/ac+07VjMaM42Y4Z7kD6I5b/7JbNmWHZjtmHH7PE2oPTRcn5ZGlyiVE0BFBl1L53HSBQn7syn1wkRUEzrQuiIf/NUU7bvSeHjHpwlzwfd/wTobLs5WIumM5n0mhuz19di+fg/FmO2tZ/OpDMH+7Pw4viM4QO5NEm84Yw9lsxY1AGyJfmHiyIlBO9wEH5f8ehjJYSp5OlGLcseHZr9yC4A9OgYlm2Q6/BtG4jnDtbMdMZkKzMbizVA603YsWaUv5hJr643bQD53MuuXbAH9ff3poWUkOFd0b+vUNyUmY46GX4yGXcIpEYljypL6GSRNSGCYHYox2h1ogdttSNdgR5+mrFsd3CQTqfN6OrBwdrawcFBNH3gYqazZ+yn8UVYq9FoJp3ObDdtq2291bfRPxp7PD5+j2+BsvxLOsDaaUdLbYw9E3x6e5Txoox6lAzFe2lzCkK8+kwyUARl8p5Wsqvjez5jGe5gf7DQdG2QQrkshtA1tNdso9GcXVxsWlZ7Rsd4eG8cuEgYD6ChByD7vjO5wzPp2txad1MWIZPGo1nUjy3mo5wyiH2Rumcck9QsPOFDxamh0MorwTaLEioPeEoQKoxv4EN0TVfc1ZPKpAvmj5SaqD8ex7P+xO3+6WWC23rrnuRR9MzOk9ksGQqWMXEqe9oXlo40FUpbQ8q5zdnBOrBn1Eyno/sLiJkQoqWFf7mz2/iL1YO17fXBbNOF5wAPom2Rvn9LDym2oRkjTelVRvD7VpK6VRm7xk33blU2lJlJePVorSt0SvGsIzOZWshTXFYfAFuzwTYMtg9AwzBtko4uNpCOscaiSwgTlguvgJaNNffNNFM4mbR5sD9oGjF75jkqKXwWM4eR5dCDHYr+u97UTeHR3ZTNA6FmVERROBOZIYBViASPBLNKBA+ft43YIEraM0rLBC0SQ4KiUl2wbZcQ2rNpc3vWQLItrKXFW1GzRtcBGTuknMGNdgNHrA46bZHOhh/7HNn9iVs8G7IUo5R5kgW9eLwivX5U2r5zPfpCSUDDXhA7hpUxF4EqMVSqGTPTtGNriPC7NSsG7wILOcDfNvYVxvTagpDXGUaJE5/XWy2izm4Fw2anShVM8ZuJ+BJJmPeomRoCWJJHI7mOL1jKncu//jQD4mUpfGZ0gKyIVIIXCWA6hgh/XTUAIhKYUdhFjABvddGNyTJhsUuvlS9uMNghWZ7KByRiHiE8uImEZCk0NUPHscAUHBZEax6EOalEDy0rtj5rDzICX2YR4FmLQEj8MY0AM1FC+Iu5ahFEeFd6dRbe5m6j5Y/ZSuW+kbvS7XyJvIpdtgMIQpPJlFJGzHlDizGUiEhCigqnX2uJXcrLgq5hxt7LpQrgfeDQg3Qjts1oaKa3wR8z1oU8phdiANA8IIT/iJoHdmw2zd8ZHYDadDV4ht2w28/DIOIB3jzzSp3s6Wa/0+lvZYUITWLWhs5OhxGRkdDwkhDJj6kSMPZgffGUYkNxiGLRtzN2AzbrcoRmFAhiLwp80fQgFtvORM01G63Fj/CGtVhsMR0ltw2cU0O/VwO8kJ4FyyE3dq7UZqq7wh517UzkEDobwg8nz8a6gYgPJAkvvOrSyZEl3EuiXlXnXiNZqWTezABJTJS1AYJK76P8RQXDRjPrsdg6/GRuE8IfogziNqHT/QFcscYqAHRdqy23eaK+s8Qr4ZgC78yjM3ImDjAvppnBHaJOD6UUXgeiQnYYuqLqtHAVpZn41EaCwLbXbRcoZS7EbHdN6VREM+C/t3YAIZIuPbANl6y8Z9ngtB6ArzcbdYU6jcjCgBHvV5+f5rI5kKF5wcbMPR0dpk7JnckbOgkrMgVUTfHIaE+mGUq7GsB9JlRR2x6kV10QMlPTqatg9pheWQSEifjv0f1BQ5c7hQ+ehDkbg3+smmbDVhCXPREhnVT2R6hsqrincnFERFKnoY4NpYA9UljZ2lQUY7nZc3U2e6QB3OYMaQI7oonYTkfVMl27wX6fAfHK9/JtIF0IPAMfTHoRf4fi7IXoSVemWqh/+CvgI0v1znw3tIkh3ikFFZjjHn8oFGnSE8TXzuZV1osd89F6owCCBM5aECysmhpAsBNGlOmf9AJ5K2HoCF80s0jOKwmtF+K8bhZT+s/FTXX4xtQpOjbl4LHpKA98LVeSsMuqEMTTK+TOlccmo4m3M7H9jIID0mXrLAqbBjthEj7psAQX+OoDE00j6Zp1bkjMhtUW+1tRDxfztuoYDw/45O/IJrYTYXHifQybMKhQMRn6L1kssZCcqXK2tT3+d+9mxH642bPRcEtHDCwfmAVUo+l96bCEAHTXV9elaK5JrwHUjTQaSgNghlE9a9imqrYuURTVC9M1mJ1hcaHwSKvs/BooySqz9LQaVv3QOpwRlpsBtEGpbgPDNbbTjJAghE14A2Zp/Kh0fl2Q8GKGvSg/EZwf65PYonSV8dslDdEma3UMVZF3C+ga4XOPvxJRZ7JPMUWO+WmF5WPNW8uJlIVF+5dCaCNBTXNA7vYqgATMRpRSNF50lrGTz0/02gFmdQ/oKWmGpi2iYnVcAdEAD3dK5FVp1Tp1CjFGg7rmaZmHTdM/cfJjMUw3N0mUBEc+29J4oSYs4XPLVSKHjgvj2EwUnU0ICA+2UQhRZXhw4F1RXHm/snH3zVlw2TTJBmdBapuuYCMs1zjJ1WrF3B7a6S093UBxYoiuIX+mrZsK1MiR1u5HRkmsQpCVlE5JaZkDiTCzH5MP38yYKFY2ZmEgFtYB4rW7BF4Uzu94tSqytommhpx0+bHABVLbyEM4rPTvn2ydU/r5xBNDKl3jdU6npJ4R/F1jLhmw416JRRjyg7JLUgjX5cMGfrI1kQTVcrDYpGQMhL06vnJiNL9jGd4rwKBEB6ukS+EjMw3bVgbHdKUoLoktOEWZN+nseY++NF0TYFJySVU9Ty3JTyC2UsVCDaILIc7sMggsQxNCM6r/xAl5AN5XQ5NAywB8E22/SgVcs2s8OET3zgT1pLgftPGMSNZLDeokGQHmt7L+Kpgj4Zx62JSY1PDkSEfwlGWPParN4rHGIkLNvG3bUcVMDdiU6UEYTbvgraXTDQllJ16eMALLHeyTA05YyRtSfh6x/8Ce4fvsK7ufym3s7TrJ4NE6OafEprr7LZn0g/eJlHK7IkiR5ZAlYQrB1JvaLjSR5A9/PQaPwFyVRNwpC+XpsRSuIfxviEd4eAkaSvtwVwbEe5p/Wqiqgg6nlhL7q34IYVPFpIG61cnsKZM6mX3N8dOlT1ZD8ehBTBNJ8aJlg62HeEIAnJrg1+3aYCh6AVrGGioeAcOjRBFEXOjTji9twzAVk6cnfVkiOSKyGWV1EoVhBWlSyaQa0ELq6FwLC0tdqWY0Per6hZDI6qIzM+AI22VWRg2molyO+wHasaYWb/k+EfSpCPn9RVdUDsF0qqCBZFPN6MfjLDKUmtQ50u/3OMXU5rI8euoINTOrjNYgpokkf/CrMQr4M7OcH+m6sLUzWo5P7LQ9mhRTrKBJPR+AXCH51IzaM/zkxuOBTxaTR6ocQtwFrJI2pSsL4lcU+5K5F0cVxaXIpq6EnZoAWOVSeH9GYUIw6z6AGCkRF3OEEDVZpEt7O752GbbtDtai+42Gl8uBBSxdzIV/quoynOTuJjca+B/pcznvRYAhfVMMnNAnVeYeCIXHu9VgnUuyL0g4UCFT0274eRRRs5CCcym6hMA6O35TsbAImhS8A5HDUp+gc4lptLlQ9UUcgU4IraUuXibS8lVk9Hd0e3GNtgKZ9HueJcWKbTA91e7WmQ+isIVIQvnta7GAHpUkFJomnwcOLU+ERBfgxeA7gs8I9KlSNouSiKKsnIrD5zeXkykMVTU7wn3ThJauwfonshWveSYZS9DhUWUhevYnSHhY+FwnYUMzXnLFRNptjRAitvIOC4Cttt/jhhftwCd4PteUkigDicrJ1lGyOElnffNZjRSTr7m9iCf8YihsBfikS8DVWXajTF9ZoUg1KVzTnrXc0CDmCh+V7GEbvpI52uC3xf0IbbdpLwY+Q+cNkEShTqX3WCEhopSmp4bYcYT3zQWRrKFHDJN4s8fBQNNnH4WpeGOp74ZHPes3hdGMZQtNKHyanR4v7ZkIyGKsCWiMwIeAfEsimvsyo+E1GHg5g041C7WscHD8gkjW0NDEEKEtdZ2Pm3pehpGQq+YZpQXCSbgfM3QRwoW6tD0aVDUWWnrw8DQnJoQ74DmJY3DPsQKm2iLLtWoxt3E8L4pfSBA1izghrKFw2YoslT3fiWzmPBcdscYL19u2kpvMQogUAl3VAcYBc9vy0uh7+DO2cID+LLh4AZ9BYw88DzBEFKUfzuLZ5V6uuLeCZlpUaVYfjrPaDF7NN8Xv3U0/kvcBpBXtH4OukrJY6Qo9s+7y75ZWwfPwV3W6cjYF2Ut4wgoLLH1jPbq2QJbQtMNYwbZNybCu0DVKOUyixdgURr8jlBBZREO6podlcaQm44pSKrurCkNbMvQVaeGZWHSbawFzMRbQ86hntBcFmxq9HQ/5GrP7a9uzhs1OAjKzsYEfYTRjMHEmfh3Y3P9ekrbdURVY/ZPTnKrNIJEXqkYqmmd6BdRkMVtjpNcaByQFkzbS8FAphIMIKeDO+F40o4xN277IadBkQQV/VGtS+2oI+aOCgHE2vRYTbCq0AxenSGelC9vV5GnumVA16Cc84W63VDRS6qro9i115Hna5LJgUjxVohAOH65/W+RTegA32Z1Bvwjy/3AxThsh7H5A7I75LBMIKrSpcJLJhewfb+SKPn9cqRqsOUWPJk5ud8htEHDdcxviHhlPbEQoqgCXwx6kwScLKgj/iyBOXBBDlsxlAb2CbErckGZJZXCTuDaV97xSS91qNhWsvGUxovBqsDITFc34RWiNLhgaYRNTTKLvt4md8HsHd2BShBh6TMEo6Ar9Esqm9LDE2dy+MPrKXhTDuqLgEY1QphNClVpaYDF0CTHkajQ9G4vN2jF/2OTTpESehWHZ7lhDS4QYIdr0IGavi7O51ZjIZgzvt8GWc6YrU+GzjQ+73ysfzIa0FVyFz4KRCtGk6/5QQ8X5XgaNGet65cZCMAYDfrDkgXha2ovT24gxJkpPpoSxsPxH2yFLWEMV3KchhnNX/d4W+AA+gRJGX+dOO2YvbHtyV+AILQQyIWYD4rS0/GAuiLddryK/jSXcDiPvQo1F2CqyS6PgdauwAgN0nQ7sxUCslwnQcLB/EN1uerxtzFn5EGbWXHiG0jddt3nmNHhX37fmXilzgeYw1FgEFlc079oN3SFr2LGmh4wohj5K4JPwr4Yb83sx4Jt64kwTsyOuIT8NdJHlVzVDljQX4Hu/EH731W0Isx2PookSXzVAGG1Q85qB3w/qxCANSQ59hgYEUfO+qWAFRFA3k0LV3NC8iCO8EgbxhYosHt/G21yVflKRHHhnC6y82VjPeF70AuRRcECR+lQneIDq4aUPmlTvkG4q/ZOWNv82ZcqyUczkI0I6VnvoT4+P+H8WqlRKWaYZA7RU/WS767xcj73o2bnphgLcDzyIWJOHEum1ZixmL8JjgwcmYWcaQpk6wd15FgvzWcnCtYid/EU0/uRwYdmvSqOiQigTRVa1BlThJcuGoqzeEIkcZg5BQ2V4gaZ4N6iaNBXwbQM+PNaPsrBKIlwYf+v12+RufQklZfKv6cgizKVJLfmkWeQRZ5SNz4hUvplZnY2xKr2MCfYeto7129GD7XUsGg2jICy3sTA7WN9fO4hmGNi0FcNKtwEqodnVDM/zKLE2BwKh/75xyXsvYqTwExrEHp2xvRxlCGV0KB5KxPdYKrwWXxkLTWvC7sxFF234YNu29xcHC80GVXMHSoJ0TYMFCjZVgruN5uxgEVTL2j7WAbiLUX5KTl+i0gXjPIDy5Y9KXV+vHxkhQgzcEwg1p61QKBRPIifFgt41j/eAOJyxRIoJjQU+fCDW6tr2+uIAxQ1Tg/ZNuIbBteivWDXGYHF9W5A2rYyKMojaZR0HdpldiuzV9N2qGJgQsghfnRyeLW9snM1H+mcbG8tnim2POUI3LXhw3XYHs82GayOt7PAyoC9anLQ2kRaiYAF2W/jeqouEc7q7vIz9bTaWl/fUWdSIoGEvIq6pTSt1VFFVsefsEnVhslrhLs27trsueJDI9dnU+qxlEU8IsLPW80Pu1NSrkyzomVQ3dTRnrjotLrQphBpDppaZce8spxjJL15/uPr+8tNza2aGC49x52bd/i1/4Z9ZLDkOO5ixnn+6/J7aSxPELFeBVB8qVj0EoV45XaV2Kp0k01iViZ9p8bb4f2zlv8Jn9HpsQz9znqNr8y1PaXQYQk/a0KGnIs5Y65WRf/7r3//74vL6QS9RTnwHK/5lq5zPJ77wT+PwrTgSY/Tl9eWT//33v/75W5X7mVWqkvQenhZIDtEShskh6M2tSGe3o3XqchxHhhaNX3/95R///cPvv4/GE/i1343eeSXylAG7+6KHmYiP/v77D//9j19+XRfF0ZtFrT14cSXSgt3qvUSpXoF0aU/pUt38peaXspXkiqflpkQoDXBmYC8A2B8BLdsLgb0BAQC0bkEYHxUf9d0ooPoRYDVtcYBuhujSEXSYt3KlYks3+j5rEbCHIw7dSMl2dboH7KHHZYxGVzlp1Q6DAK2hCPnfxEeJWL/8uio/N6Nc71B7OOJs4NUaJ9nVNIlu8cN9mqr2/3xxn+ZwRnMxgkE5eMcQAv0qSKuDZZfDdYQ+Yv0aXY25wQ/UEIb7NPzyp64qnUcC4YOhfmlgKb9UuhiLyin2ItR+FqT9Pc5ODwVClKwfPcSiiDqYbkurD8zMDvNL/Ys8byzgA4Qytnh9C0IVW4iIFAPgmx65Z5nsHJEj/C7kHeRlBz9Qi1UyC6JQcWjrV7HZ1yK2eDY8PvQvUdj9XNbRmNthifhAeCh2amgIR++OMKPq+NJue1h86FsqJXz5GTE+P//9ZIlvxGK94IYWQlLXbHu3I9wOYfuozL4Cz9w1xi9pMf4LcWxxa54myfM0bYOrg7CcE54hBY+E6RdNDeHv4QjXQ/KJBzJ6MsFnYwA/K08jc22v7phru9+WlSaZYDFbuPqhNy9omuaHcISLQfoDXQ2eEJ4FJ5wh/Kxc22fkS8+5uTAEn+oJC7mjMPVDCGdthfC/QxEC/YP1CiKLgVCtO+dL5fHa/c/IeYsyhRmjYVuUyQiTOaw5CNaeRMVBKUP43Y/hCJvBJya43lzFa8JfkvOW5xbTt9GwcMqVKZ5xN1i9U4jchAknI4aG8JfQt8fBokAAABfySURBVPhTwhw1Wh8z6tpNVyia288tZL1JRDvGv/vZ00LUtpuZIebCtIMnnfT69q0I4U8Dr2VIJKhs+ODuZ0/SacOaIQqi7mLyqTk8E8Q02IlmxgylV9q1A3UjtP01DeGvoQBDXBp2nowArdX14PnhkMWTiXFWjEHdaO5kEFPyDHgtAxAbphlyCBNy9CT3qhCuhrwh1Bya+7abRha1D9JN4bP5m8YEFplDqmx7FrnhHD+wxDn+J4AAFLHd1XQIGtAo4eYiqiEM/b0Zcs4NGng2fWAABU1TVkXd5rON1F8pcxhW9DV0yVoMYCbzwLKttf2QusswTwdX+jaEYaoUeH57P2a7wKjb4uTpVjFkqlTWYqh6mtuUqVZPg6UK0YYdm7WCp9zRkGJMtlllD8MRBouGkLUXYrGmaSL3++tphiOUR8BE9SkRIYoLQc4wv7Yka6KQm/A2k20E1Uq6EVK9gAAaEmGo0xaqaMCI8ntQ5pDSvZAlo0N++emlUKa83MQ5PT1K5ZLZbCpVLKZqFVX076TYV7xrM6Oe3gYr3Mz44IDoBANjfL0pI+AfQhEGA2o65HYPyOLvyxpa6dDUgjXMtFhkMSrr2kSlvvBMq0SpTqffaq2cH59093blfXBZm6hupYPC2fYec+ON7VCEsxJhqNMGYujlBzO9bsn7mulGoDaxdnJSTIV1XVSKhtUmBlQND5O0JdqSqvrSpugXYHgvStAKKeaLRlnFNyEMd9p8tXt0J1NWR5vK3MtbJchRS8u5YHt65bOx4vBAqX517+T4fEXcdscl2+PLGmGxGayi91+WSDdDQ0RyTBnCf4QB3PaU+yE+2zXEgTNEJuJ+l9CkbNpEpHMymfIG785vslif/0lC1HmLML9aSxVzrcj8x2QuV53XEao6b1X4GTvA89HGdka2bFkMceZ48RdDGOa0acWJeLkP7+ovHoiCJKwW4npGXRidFJ1TW3s5vYGbLC+VFy6u+b0uT4hYonvONd5LRD6eU0lEbiWwWDa9OhuL4a2QtNhOmL0gx5QhDHPaMryyGjylg1k8olg0ISLk0gDaS5R56153Jcma3FMvY0lIVasvLs28EILo6ja/iO0+KL+m3/AT9y0UEfdtyzQzUeo109w36aC7Eea4YVw1HCE766UeLtiSiJUFyIL/qCRhyxveY5fNPiekIO6YK+y9uG/BBNHytaCDkH4eU6QdT3NZdWdGZk8MNH+AbB/vhdgL+9F0et0OYVO6xcYQhjPpYprg8Z42OrenFQl3/QUV1ezHKkvH86Q3XZT13pmJxHlHjPErLdHK9eZ8yfuR4t7Tc1EXCirS5b1mDugEPtZcXAuNoMwbEILXae/jn2M/Kd7TJmNx1wEVKd+sfu/JAX2BsyVaHY/GrzzmdRij6k6+vLum9/wo0fnTUtKniyvq7poAYQs7hm2Q2C4Nq7mm94tilJD20IsN+0Otzdp4QAjwVuUJPoTMTBLSTalIpalwUslJBU7n37C7a++Ea6pFwX4dEyDiG1FwlhloPGnS/V87hmXq7sLi9momLUtK0i43U78zYFSKklndXlzApwJyvLAu4TH2Z6YC7EiAhM6ZDq5/3j1LpsRvRPsP7f5hyEXnFNMxIVk77Q7pInddbI8jChs311zL4r3m3Obs4v722ipwcZPT8AfWqG1/cbbp8rZ0hmUcZDK+dhP8zoZpyTv5MpsvYlUOTqukZalSNBX6VWd5WV2wKTuG0TvCTUoRlfeAhbLxXKST23Oj2wNsNKc3EGQI4z29rSCQerAdBWPo9fRMYH723LDKW8CRLMVcj073f3IpX5lw+D1gdU2Wsymqmfmq0jFOcm9LwJ0Ud7llft/U7+pFhXCCC4CN5raxsMG1OERCOEE/uI2FwSK1riO74IvCABdXYIpHtdC3IFoVb555uw+zFE3gLrdiU5H5Lnp0THFkSWsRI+7jR2Z4cau5HzDx6nYeEzfqgQnahLj0R+x6meZFX4wL/GEFXgJg9xejVlvcc17RhEYZQmrqL1+nbHeASUN6KlQ1EayyJtNL8m6j6KnwTsQYYOL9hc/BuzRmZp0h/O4X03+xPZA8z7jMGpmm1t7ENzOjkjzldTHnG8H+Lb5eUaovhjhG1C+jcq21LF6TfTHeWDbztFYDd7khJPcnONAxJYR+lwZI6C81Hdjs/l+6qbrw+K8KIiGT/AaTOJBn3bAmfJoUF00EQk3wypfLKB7RR7QKHa3aQfY2gbiCIGYW/RmIMCKuDUEYICHy6D6lEQCg2Gkr7Kb6SCl7ttlRU/qo/NkK60J/KfrTTHvmwFRZd4bOXhJ77khlw6tRInRPjzaHfOolYjpAREy6EEJfLjFIQt7VBpuiSCGMqGnD2F8gJW8BOcXcXp9nNpwj0cc00J/mfkDXEINSd5TIMZYOId2kC14RRvEQIGKnB2z0MOvZpriurr0S5Qi9AIOhCDwcPBgxV11bNeBRPYZqpZOlfuv4VDUwraa4PmV6JrTHENVkkK4xJJvWOIMekUeLll7lgGSfqHczBrjMJulTLyBQp766gwxD6Mu0pf03GLGBHTB4GplaNhdUXcayoiVzP9Dic6RuCGMYnCOgen2Ji5bM6nd2udVwqp7WX7LX11uA2IQnjo0evKX2Pl+HXV4IIOS3t7QXsIFdBgv1DaVGlcetOv2F9P78INKIIb2+WL82vfElpbhPcqqltjZKQ2sVFXkzAzvZTpuZhmhbJmix6Gu1gFddAaE3l6jfNyWAwO/NNDbe0wCqq8zISp29YmmPjPKSFyJrfzmsm7DsuSeTGdkV1ZOQVY/pRyKlZQ0ikHE1HTV82kYYNflz0xB9ExUg7cow/YynTKzxngZwQz7nLE6gq2BYeIpc5Gn9UH0te+6FTYI4lA1oZRftiu4JIlt6zl5V30RgVMOKDdjT13e77bUYmQULEXpyiablySGi+nSj63g5UQOo+jKjO8ntcoG6YOlnGETCEH9GLLqI6GlfWtuSTRmr1MPbW/qdldM2EaJhWxD5eomGN001qqKLno97cokqFSMBWgPqNqR1MNVaXRWXdLPsnR9SfXhj28TQFrRIt9NUtVDJUU3tsU93JWUxMTZoxTr2huWBCFTVYwbsDEkdWtUr3rvurCuYbbuuMSPNRGRTO4nJ9vURvBhhKIQaCYc0oZU9aMc/cKtAF/I2d5e3yIfhjf20aEVrstu2jIUGXev19Epe120dZq2wy65GVVcGmeSkE0BjccHS+rN7OgnjKa1CiPWSMvdGScSbGwmrVtCGsPrFPfXrLT5ac+tURVUKYuR5257dxtZ5dvNARerYP0olALZZp2SdRwUXs07JthVz90GNzqhBAr5WycA2J8rx2NIQ1t0bu5dKIjJ1Kh2bohhZsXTGWBTt7Zk6LNB6Qb+Zsd0D7EhmYftuHrCjw6KaD6wRQum0ic4XmKk5WKSns7CWHsQ0EeQzO+Si6joZmSMNBUXJnTGGd6BVRMQTb2Nc6pTJ5PLJ5vFekSeVmUOhZWVzarjv/bYVm01DjIRJGru5SJMf0otKnwJcRKjEDpuXUSvhBYNlAA7Sa0BAbYLAif80lMbO77JWJngW1pLpGRpPeks/b60nuzZ/pVAr1gRfco9J16laT3Zs6W3tpw+olxdeIcCmAnRzn+eiTIGQ9aMH3xxTHfxigwFmIroQaxvaBrWe7A47ZmKexkoxVZqsoH4X1mLs1V16svO++m2KE8OOrfi8pRXPIazeV/++1Y411lBhNNebPMnkgmTiFRjMRVnIRpkMGxiAVp29pTFYW7AgzF+0PQTU++o7xXk2HqHKDhZWurtdEKBzvpXJizsO8aBaTDYbIWzGDOdI340oz2yEtzNWrIkHD00zfbA+27Bi7LKPSKnl4z3+b3gdO+4vLK5FsfewPQA7r9kIHCSld2fD0ZYM4ogaFiJjxrl7cjbCLYOt2HwLiqICEAngUsg5uqPPt8D5D7EmeC8W+qogZGv7Cza2neMIEz0+uANM5z7LQ4GsGkbTxbkI2ues6BcoHJzLwH0bR04kknNg5q5EXHjrMB01o2T6ka+mg4Lh3Y7q1KRtwDujBDDSfIoFkj3TpDQOjWNpAg1/wDxUBgxFg6nbzCr1xrS8+CJ7vvEOKWQUPjekkts4Od/s1mQrx0ds5tNoeFDhXT01C8lbfcIAdkUHSoizPTc0RjyDut7MoDDbBjsAN6PYyRWhztr5+I+odDDuIGeGoiQcT/LJg6/l6EkZ7HvB+l2K0Sig/rQsMPNmJu42X06bFeThUxopvveRk9ApFk8iHX1Ao29WUOStgYSMNQ7o9IL3LDcHgPAf3BKuIX+a2xglzXjH6LBZQYp8ySVszurgACbveBudR/lMqzsMXWXzniyfPqUJzrvIjK0sbzQIYYznJm2t4J33dAggwUK6C+tr2IeeMsTrdp5yiRCFrKdXtwcNUDczM298k7uWKvqBHrbZJqPg0OFlwEJyPUpTEcp3mPekz+wyZNxZI4BFGrdcS24IKN7ruE7WP7Pr8O3zmRk8UnIXQNVsr63uI0KwFC5oFotGdhl+eJH+ht6ajIn4CrslSAHOsQ+iM2kIHh0NGa4YsthsQOoLLTtF0tz0IsbXrf/ZlRK3EZh0F5y7Frn/9nl7BoiJl0Rj4HmX2zg8CARvZub5m+CctM5eznM1hNxCOVSGRk35HDmy9UyP3nU+oDY777EQxdLyXoqCqWMi00lfAvS0wR4phWCMIDHfvnluACpAiJPzPoWPzgvMzqugqe2cKvNEED3OOJvUSR73XWaSsaXmH05fCH+tMClPuDtbHxHgKe1lcvnYOxOlktu7Yf7hzPAJjzT/0FvQxS5PeiYGUTSjOVXVCzWK9G48iovp0zxd3dT8F1ZqMt/NUZ6NAcReEn2/j3PDDMuZ/FCLvLKR9NXFiMDFU2dHL0oF4JxZvNHd3fSoWGoOqXWvrj4e/HqcDl/UAa74d0AEL6aGzCE1/LNk+Wp5DpDY5tHEdtCX6XsEL3cc2ZPJ9zpZwp3PHwmszZLVmyfXNrKTjg6Qct/+8gj2m2w1bJbs84mQ+Lu1VckG6w1TOD8rVUFHe9NjBIvq5JYNWmXzxz9rlizrh8lHkWrjckcK3LU442WMlYjIRhcCNXTYAHfXPw/404RPGwyZBzxChS1bOT5wZc+jtSWx2fhKqrMcTXweQM9MZ23kMURpGkBqrMmGSxSW+8shha2TxWxyQ5/p/OZnyUud1vCZzrRKLK1Abv1RWOGzNvD4s2c6RyJPtLnc2rzVVEcDiKODuB+OdZlDCswLOJc7dbbb3TrePH/y8//eNpe7mp3koDllcWyYv0clLj5jlc3lvm0oYMhSs9WN6dcSIlqMIzHWBbsWntBzptsmN1YnO5MlnK1+9fO/abZ6IYwv+TfMR069TInfsxKAyKdyf/FsdX4RgzVz1KarF/dOBVtp3W2pArzPg44bcFY//PyvWwrtqcrCy/E0L6Tre351ZggprE9MfAlAfi5M/WItDaI8qKSSFuZ7s9uXJJHO0WZx+F3Nydc///OWqznsQsCeJ/mcRRt46nk0ABDtRJvU6N1NvXexkwyyGTpEsVnMFvOREylmmvEpY4JvdyiZChc//3YbQqaVvHMB8Xi2ozMHA2i04zQY6DNMvXe90yG+9kHExlj8cAuPFudXWJIROzjQ868ETDi+89HPIaqzUNLy6Nn5SJ8CQV3w6Fhde3BzJIPMG/0CNarWUwURNKon5qeZerz8A+nW3aSaLLy1TznpylZnM+xuS973oAq1VHKj2z2TUoZVn+T3ekKIym7nTKmfsYc6wLsNch6ynugQPXYReXSXOyJINwzxtyokRYQbb5xucccnlU3JBpValQC+rbhxwjwfqStBaXWSFEJ45v9WtRaXY491gLcmZj4D4vdjiplKy/JoPUV028MSbDxIYIeMCJVNZc1utfqtzWU8LHdqYDBSqVQWJxcWQEsVVVpAHGzhyUSOJU1aYZMc0ZNhWpQB/AJD6F2XDCIZjfFXmhtelU2LiG5oEVspTALQBRQspCcr7VRE7/tTxzk7Od5cWWr15zu8sTE+kc7m3jIC5XyKKrqYcqjst58NQnTmKLvNtOjo1Ge52zdBZE3Gx++dBS1BjdGNRoV1RRYaRZOIic5OZ4XiSUfUwfM1n6Xm+PMfq1XMcHGpRdBn4rxnvuYX5erRPQ4w/pUACkZl3o1lXQQSxUg3cJ1Ry//PvLCQ6GlhEEcQcqnkyArQyClEOvP9Fvxq6WSru4dVy/hXEF6m1AmEuLWydIT/6Pgc0rkLy5KezFdgUQ9ENoAD9E2wTzvegcBc365w3dB+0NUPvGKE1QROCsNkJ5nMZnH6bDdbKVXRbqAggoLCp8RVDcskrBylnCJdGdGzsg7oGEv6on9YyajFjEaCTTaYflbwmDS0i0g33KtMiCNsNswMj21q+AeqvvpEc9KxbHwph6kJ8RImvZZG6DCvthFZOdNoWC28Ykq0l/jjZsK7mOln8aIxbng41TlaobQJq0vm5eScNJxdO2e6O4KCpsZtHGGn8YhWGYOvbInu01m94HLswiARpO5Io/Ev92TC1mGZ+X9s3PL01Zie7S4WBdmkMOUiQiDZHXe9YFywNVvcSYvMH8kLctoD0FZh7L+IQ40dUu6J0a8KEBYxRpwJI+jURwGFQyVUfIIITbXlclU6RQxaPQUKmrxIRemtDiWuREot6RmGJ9bcI9KhQgS/NJq4aT2gUCPBOBXIOOdzMCm+4Jc6sPO33OVkEb0WlWqZ3NVDSRTElY9H+BR43jfpnxuNj2zuiqkYIYJfFA/etp5McU41GBkvfEq10u2I+jrUq9rIG5rdLe4wkvJREPDUupMsUPaHeaLgevvuwTpjF5yAO6zR1teyEv71jgljgvXHt6Zf/eb1oktZkThFR1WPflBXyrpGtPta1Q+qotOCQxUILfRhJvdS3tOC+tErJoHWBOPQ+NcWQbkOeywoFmQcv6r7Hjb7T7UrqeSQMsRYUoJCdtYazKAgotqlTC+dZnnZvzp3NU4ENNqMgOWhg8W/xuJeKphGbjg+jIUE9CiGzLwVl5ZqxYKDhUdaq3hAok1pFo8jedLaOgs4aWMPXcagnIDxb8WhYr1LsO/h01Ss8XuvQzAWC1us5Aa9sfNlB4uplVzmImq+LfYii3CWrgXypoDv3rilS2Ci9804VK5rpnASfA6eNX3vYRCjw/ealQeKSwoTxiKeYrzWcWiUVJL4jHYvwVTMnU+X/sh6ysnINQ7S8cNcfUj2pciK/jwnt8mOt/FDKhWSnnPqlccux8cZdLQ8+gfyFZ+1rpk0xkfzFudV4+q3ufD0UyWb3djd8ExiLJ6vbN7SOm1y7LcrS+DLU6AEEvinEJCt+6NlgdHgGKdfXYwNIWRh0ge+WLyxz5NTH3v9aprLn8HxjZYnvr0E6utFmbPqqBhwBAJ59X4sfKLGZyynNPb+yp0WH5rnvTQTia8WKd15XU7FBUbeOhcIef34/VjoYcTdVqEydvb4elqwpwH4mAb9OrH8567DBxxjPC7nwyLIq0dj9ernk9Kp1scePX4m4AG+Cc6f8anrP5dB1br/corvIdGT08YApPvq4RmgvDstC6X62NnD710JjwYj/+X4PBghXsvL2ZvW+Pj0vVePf6qP1W84ZGKUm6zXx0oXj1/dmx6X1LPaE6MJ/rFTD/5KfITxwRTbTBwImVdNsBHl+L3vH78+nRubq9dL1ULBodY++P+FQrVaqdfnxqqPXl8xcPLvrHZeki/x19JPrMPLKWY7iFvz+mw1gDk+PX3v2aurxw9fXzx6f3bkFI7ev3/008XDD4+vXj0zpnVwXnij8fLn1R580/VitJyQIAMDDi0ESljFYj/r2HCMAM1cF014E1MTf759uGndv54qi2cfx9HpO7DjO/Zfp3PAnYkedvqW5Lv8O7Cnbz19IEESzNFefocuNN40/wEZE8AB7dSflqeuv2Ke8OsuBCn5LI7EjPd6eQTKHVha/F/t9k4esWnggDkB3t+LOwPr3WUcSKntmYBSG6MeNebv0RqlF/X3Ebre5d+Wevo6fHGd0GgpkDK0PlRSP5WnRi+f/g1lb+g6fHo5MVUuJ0Lx6NCAluWp8svLvzlrDlmHT59c96YAaDmhSVtccC68PhV/efni3X8S6ULX4bunLy4vrx+87FEBWm/i5csH15dPXjwNLaL92uv/A/UStTwt87xkAAAAAElFTkSuQmCC;" vertex="1" parent="43">
                    <mxGeometry x="40" y="73.55932203389831" width="100" height="100" as="geometry"/>
                </mxCell>
                <mxCell id="44" style="edgeStyle=none;html=1;exitX=0.25;exitY=0;exitDx=0;exitDy=0;fontSize=18;fontColor=#666666;" edge="1" parent="1" source="18">
                    <mxGeometry relative="1" as="geometry">
                        <mxPoint x="514.8823529411766" y="320" as="targetPoint"/>
                    </mxGeometry>
                </mxCell>
                <mxCell id="45" style="edgeStyle=none;html=1;exitX=0.75;exitY=1;exitDx=0;exitDy=0;entryX=0.75;entryY=0;entryDx=0;entryDy=0;fontSize=18;fontColor=#666666;" edge="1" parent="1" source="18" target="19">
                    <mxGeometry relative="1" as="geometry"/>
                </mxCell>
                <mxCell id="46" style="edgeStyle=none;html=1;exitX=0.25;exitY=0;exitDx=0;exitDy=0;fontSize=18;fontColor=#666666;" edge="1" parent="1" source="19">
                    <mxGeometry relative="1" as="geometry">
                        <mxPoint x="514.8823529411766" y="480" as="targetPoint"/>
                    </mxGeometry>
                </mxCell>
                <mxCell id="49" value="" style="group" vertex="1" connectable="0" parent="1">
                    <mxGeometry x="20" y="660" width="1050" height="97" as="geometry"/>
                </mxCell>
                <mxCell id="7" value="&lt;b style=&quot;font-size: 18px;&quot;&gt;Security Layer&lt;/b&gt;" style="rounded=1;whiteSpace=wrap;html=1;labelPosition=center;verticalLabelPosition=middle;align=center;verticalAlign=middle;horizontal=1;fillColor=#dae8fc;strokeColor=#6c8ebf;fontColor=#666666;fontSize=18;" vertex="1" parent="49">
                    <mxGeometry width="1050" height="80" as="geometry"/>
                </mxCell>
                <mxCell id="48" value="" style="shape=image;verticalLabelPosition=bottom;labelBackgroundColor=default;verticalAlign=top;aspect=fixed;imageAspect=0;image=data:image/jpeg,/9j/4AAQSkZJRgABAQAAAQABAAD/2wCEAAkGBw8QEBEQEBIQFRAXEBAQFRESEhESEBcQFxcYFhYYExgZKCggGBomGxMVJTEhJSorLjIuGSIzODMxOCgtLisBCgoKDg0OGxAQGCsgHx0tKystKy0rLS0tLS0tLSstLS01KysrKy0rKysrLSs3Mi03KzcrKy0tNysrNysrKysrK//AABEIAPgAywMBIgACEQEDEQH/xAAcAAEAAgMBAQEAAAAAAAAAAAAABgcBBAUCAwj/xAA/EAACAQMBBAYGCAQGAwAAAAAAAQIDBBESBQYhMQcTMkFRgRQiYXGxsiM0NVJygpHRM0J0wVNic5KToRXC4f/EABkBAQADAQEAAAAAAAAAAAAAAAACAwQBBf/EACERAQACAgEFAAMAAAAAAAAAAAABAgMRMQQSITJBExQz/9oADAMBAAIRAxEAPwC8QAAAAAAAAAAAAAAAAAAAAAAAAAAAAAAAAAAAAAAAAAAAAAAAAeZSS5/9kR3h6QLS2zGm+uq+EGtCftl+xGbRHIl7klxb4BSRRG2N7by8mlOemnqX0cMxjjPf4kh2Tt+4tsKEsw+5PLj5eBRbqa1nyh3wtcEd2Rvbb1sRn9HU5Yl2W/ZIkKeS+t4tG4lKJ2yACToAAAAAAAAAAAAAAAAAAAAAHL3k2t6HbVLjTq049XOMtvHM6hGOkn7Nr/k+ZHLcCq9vb3Xl48Tm40/8OHCOPbji/M4IBgm0zyq290e1H8S+JKiK0e1H8S+JKjNn+IWDq7K3gubbhCWYfclxj5eHkcoFVL2rO6y5E6W/sa+9IowrY06k3pznGG1/Y3Ti7nfUqPun88jtHuUndYlpgABIAAAAAAAAAAAAAAAAAAAIx0k/Ztf8nzIk5GOkn7Nr/k+ZHLcCjWADzlL3R7UfxL4kqIrR7UfxL4kqKM/xGwACiEVpbnfUqPun88jtHF3O+pUfdP55HaPdx+sNMcAAJugAAAAAAAAAAAAAAAAAAEY6Sfs2v+T5kScjHST9m1/yfMiNuJFGgA89S90e1H8S+JKiK0e1H8S+JKijP8RsAAohFaW531Kj7p/PI7RxdzvqVH3T+eR2j3cfrDTHAACboAAAAAAAAAAAAAAAAAABGOkn7Nr/AJPmRJyMdJP2bX/J8yI24kUaADz1L3R7UfxL4kqIrR7UfxL4kqKM/wARsAAohFaW531Kj7p/PI7RxdzvqVH3T+eR2j3cfrDTHAACboAAAAAAAAAAAAAAMrnpF3nu7S5p06E1GLoqTTWfW1Nf2I2t2xuSZWMCo9n7431SGp1OOccESzczbVxcVKkastSUFJcEuOSmvUUm3aj3QmBGOkn7Nr/k+ZEmRGekn7Nr/k+ZF1uElGg9RWXjh58EblDZVWfZdP8A5IfueepalHtR/EviSo0bbda4bTzTxlPtZ+B3Z7JqLvj+uCnNEy5ZoA+87WUebj/uR8TPrSK0dzvqVH3T+eR2ji7nfUqPun88jss93H6w0RwyCuukTem7s7iFOhOKi6Sk8xy85a/scLZu+1/UbUqnJJ8EQvmrXlybRC4gRDcna9e4qVY1ZuSUItLC55x/Yl5PHeL13DsTsABN0AAAAAAABhlRdL/1yl/Tr5pFusqLpf8ArlL+nXzSKc3qjbhGdk39OC01NS45zFJ/3Jfu1vBa283OFVNyjpcZxcfbzK7BjrEVt3K17Wu9VOS7KftpzjJf2OfvttCFxYVadNTdR6MR0vPCSb5cCm4TknlNp+xm9Q23dQ7NWfub1L/sv/NOtJ9zUrW9SHbhKP4k0fI617vBXrUnSqaGm09WMSyuPDByShB9KE2pLDa4rkSrU3zInS7S96JWijN8RsHuFKUuSb9yPBvUdpThBRio8O/GWURr64m27m1adG0pU5qWuKlmKi++Un3+82LjeaK7MP8AfOMfhkrypfVZc5y8ng13Jvmbf3JiNRCfe6W90KV9VVWdTTJQUFGEXLhlvz5nCtNnxoybjNyTWOMdJtAz3zWujNtpd0c/xa3+nD4k+ID0dfxa3+nH4k+PS6T+cLqcAANKQAAAAAAADDKi6X/rlL+nXzSLdZWnSlsG6rVYXFKm5040tEtPGSeW84XHHHmVZY3Xw5bhWQMyTTw1h+D5mDEqAAAAAHqnzXvRK0RSn2l70StFGf4jYABnRAAAAMpHYEt6Of4tb/Tj8SfEN3C2bWpSqVKkHGMoxUdXBvjnl4cSZHsdLWYxxtopwAA0JAAAAAAAABhmQBwNu7pWd2n1lNRnz6yCUZ59vj5la7w9H93bZlS+mpc8x/iJe2P7F0mNJXbHFnJiH5oksPD5+Bgvvb+6lneZdSGKndVh6s/PufmVnvBuBd22Z0vpqS74rFRL2x/Yz3wzHCE10iAMyi08NYftMFM+EXqn2l70StEUp9pe9ErRRn+I2ADKRRraLBlLwJBsndK4rYlP6KHjJeu/dHu8ya7J2Bb22HCOZ/flxl5eHkasXSXt5nxCyKbQrZG6VxWxKf0UPGXGePYv3Jpsrd63t8OEE5/flhz8vDyOskZPQx4KU4hZFYhhGQC5IAAAAAAAAAAAAAAAAMMyAI9vBufaXibnDRV/xaaSn5+PmVjvBuHeWuZwXW0l/NBesl/mj3eRd5jBXbHFnJjb81QWJJPnqXMlUVyXf4d5ZW3dzbK79aUNFTn1lPEZea5M29k7u21thwjmf358Zf8AzyMt+lm08+EJohWyN07itiU11dPnmXa8kTXZO71vbYcI5n/iSw5eXh5HWwZL8fT0pxCUViGEgZBekAAAAAAAAAAAAAAAAHmTx7j0RzpB2r6Ls+tOLxOUeph46p8Mr3LU/ICFUOku4lfqD6v0J3PVZ0PX1TlpUnLOM8VLlyJZ0h7Zu7K2hXtnT/iqE9cXNaZJ4a4rv+JXFxYWq2JT01qPpSr+kygpx6zTL6PRjnwioPHin4k/oS/8psRp8akrfS/6il+8oJ+YGxtjeadPZKvoaeslRoyjlZj1k2k8rw4y7zz0fbyVr22qzuNKq060oS0xcVo0xabXHDzqXkV/b3zudl7Nsc5c7+VNrxpqSks/80f0OxcXfoF1tuiuCqWzuKa/zSxF49uaz/QDqbn753FzG+ubjR6LQhqjohibzqklnPF6Yr9UaNhvDt7aClWtKdCnQUnFKSi22uazJ+s/akkdTcHYEZ7GdKeV6TGrKTXPTP1YtfljFnIstibf2YnC1dKvQy5aMw5970yw1nHJNgdrczfGvcXFSxvKcYXUFJ+qmk9LWpNNvD45yuDRNa6lolowp6Xpb5ascM+zJAt1N8XWvPRby1hRu3qSqRWJOSWXGSfFPC55aZYDAhPR1vRcXzuad1o62lKPCEXBaXqi8rL74nO2Nv1cVtrO1l1fosq1ejBqDU/VT0+tni+C/wBxpU6q2btq+b4U6lpXuEuWeCq8PbqhUXmcenau22bs/aLzrjfzrTl3uEmk/wBVRQEz3q3ou6W0rWxtnT+kVPXrg5P15tcOPDEYtm70h7y1LC3hKjp6+dVRipLUtKWqTxw9i8zg7DpK63hu6/OFCOmL5pS0qksfpU/7NHea+pXW3aNOrUhG3t9Kk5yUYa4/STWX4tRjj2ASvo63mqX9Cq6+lV6dTTJRi4rRLjF4y/CS8ma/STvNc2Ct3b9X9JKopa4uXZUcY4rHaI3u1fU7XbtalSnCdvcOSjKEk4apLrI8v82qPmjb6bOxZfjrf+gGxG/3oaT6m2w0nyhyfH7xNt3p3Uram7yMY3Pr64xxpXrS04w3/LpINTr706VppW+MLHGhyxw/mLDsdfVw6z+JojrXDGvHrcvbkD7gAAAAAAAAADDK/wCkbY17fVrShSpSdtGWupUUoKKlJqOcN59WKlyX8xYIAhsujTZWHilUTw8Prq3B/qanRjsu+s1cW9zSlGlrVSnPVBxb7MsYbayoxfFE9AFWbA3LuaO1+slSkrSnVrVac9UNLynpSinldpd38p9ekzdW7urqlVtqUpqVFUqjUoRUdM203qab4S7s9ks4Aci+2OqllKzi3BdQqMZRynFpJRax7UiBbIvNubMi7aVnK5pqUnCcdc+by8SjnhnuaTWS1ABXG7Owr+52j/5O+pqlpWIUv5uzpisdySb58WyxjIArvpT3ZubqVCta0pVKihOlNRlCL0Piu014y/U6u3N3Jz2N6FTjqqwoUNK4ZdWm4yfHgstqX6kvAEF6Oth3FlaXFStSkrmc3Pq9UHOShH1FlPHFt9/ecfdPcB1/SK21KM1UnWcoxVTD4+tKWab5Nyxx8GWkAKs3t6P5UHb1tlUpupGo3KPWZeViUJLW+5xaaz3+w6PSZsa8vqdm6FCcpR1yqQ1U04OShwbbSfFPl4FhAD5W8WoxT+6lj24PqAAAAAAAAAAAAAAAAAAAAAAAAAAAAAAAAAAAAAAAAAAAAAAAAAAAAAAAAAAAAAAAAAAAAAAAAAAAAAAAAAAAAAAAAAAAAAAAAAAAAAAAAAAAAAAAf//Z;" vertex="1" parent="49">
                    <mxGeometry x="680" y="5" width="57.3" height="70" as="geometry"/>
                </mxCell>
                <mxCell id="51" value="" style="group" vertex="1" connectable="0" parent="1">
                    <mxGeometry x="20" y="750" width="1050" height="90" as="geometry"/>
                </mxCell>
                <mxCell id="8" value="&lt;b style=&quot;font-size: 18px;&quot;&gt;Monitoring Layer&lt;/b&gt;" style="rounded=1;whiteSpace=wrap;html=1;labelPosition=center;verticalLabelPosition=middle;align=center;verticalAlign=middle;horizontal=1;fillColor=#dae8fc;strokeColor=#6c8ebf;fontColor=#666666;fontSize=18;" vertex="1" parent="51">
                    <mxGeometry width="1050" height="90" as="geometry"/>
                </mxCell>
                <mxCell id="50" value="" style="shape=image;verticalLabelPosition=bottom;labelBackgroundColor=default;verticalAlign=top;aspect=fixed;imageAspect=0;image=data:image/png,iVBORw0KGgoAAAANSUhEUgAAARwAAACxCAMAAAAh3/JWAAAA8FBMVEX///91nD5LYSy3yp12nj5ZdjFvlDtIXStniTc3UQbg49xsli7z9u5JXitqjDhloABvpSRxmTdspBxpohRxpimtyos8VRPn8N2DsE3x9urV4MfL3bbIzcBwmTX6/PiOt1+20JifwnaXvG5DWiLf6tK7zaOXs3Le59TA1qd8rTuSuWSlvYWeuHzn7d/U48WmxoFRZjO6wbGNrGSswo6EplVnkyJdckCwzJC91KOesYR8oUmww5aHqFqRpXd9kWLI27Juh01/jWyapY1rfFXJ1raBlGfM1MFme0peeDrU2M+muYypsp6GoWBgckdfhSSItFStVpp8AAAL00lEQVR4nO2dC3faOBbHeUyn20IjIZmCQzAYTAYHYpKQlDRJy8w23e50tsv3/zZ79TI2YAXSzlLg/s9pDwFb0v3pvuwEyOVQKBQKhUKhUKj/iy5/H55vew0/qS4v3r5o3lw/lre9kJ9PJxdvC29e/JKvlEqnv217MT+XwGsKBQkHVCnlexheWp5CE8MBNUunx9621/UzyKBJwpHuMz5493kdo0nDEe5zc/V42O5z8qqQBUe4T2l8yNn55K0FjnSfu97BFven4ICguB9ve5nb0RpwRHjd3bvbXukWtBYcWdwPMDuvC+cgi/v6cGR2vj4o99kIjszOw8Mp7pvCEdnnrncg2XlzOHlV3A8hvJ4FR2bnA2gNnwkHvAfhHCqcskwbCGeFTv7olioP4+gS4Szo9T/fve2+/DVfaZb+8RLhJORdfnrbBRQvfxUoEE5Sr19JNAhnlV6bW38IZ1kIxyKEYxHCsQjhWIRwLEI4FiEcixCORQjHIoRjEcKxCOFYhHAsQjgWIRyLEI5FCMcihGMRwrEI4ViEcCxCOBYhHIsQjkUIxyKEYxHCsQjhWIRwLEI4FiEcixCORQjHIoRjEcKxCOFYhHAsQjgWIRyLEI5FPwBORegG4SRoNOFf/u7u+uHh6vR0OBg+Hh8fP4J6xfu9+cCLteBUjPISh6AxHIzH98ViTwhwDE6vHq7vxPtuSs3mzb58nMPTcCSNIdBI4NBIhhLJXb6pyZn8cyhwfnlx8e3Lx88f3t9LLMXieDA0XtJMEkkm58OB86ZQ6EoVLo6ASCULyaHCMYccrVe+DhLOm6O12CAchINwEE6mEI5FCMcihGMRwrEI4ViEcCxCOJnyyv/6G+BUBr3Hx9/Oy7v6OV5e+fy3R3FP5v7zu0L3h8MpgsS9n8djYLRtWzfUn5/vi3Pdf/hS6L55+au44/cD4FQq+UExqcHVtu3dSCevul8+3PcSBrz/AnCur4Yfut8Hp9K8Ox0nyYyv8s2bbdu7kcQnc3WBTzHJpwhR1vseOJVK5eE0OWRvfJpvViBBb9vejaQ/tqzb/fi+mNZ7ccfvOXDAZa5S0QRk7prqluFOwgFzuxcLfGQC6m4Ip1K5hmBK+czwen4zdUfhSPe5+Pg1teXF9x8vBJ/14ACDh+E4FZ/F4UPqNvPuwpF83qXKlwivz8DnhbiV/m8bHHgdgilNZnCVX7gBv9NwFJ90+Sr2vn74/Wow7n0sZMFRlSl5Uq83XiKzB3AKunylJO3+0n2zAo6oTIvBJMg0V/3WZg/gCD6FL4vlS7eIKTiVyt1SMBWhOGX9PmvH4LxaDUfyWSrvxXuToY8UmYVgEkcki9OSdqsJ/LOb4ToqvBbKl9TXj++63aNm/np4v0CmVxxcr0g08wgsPWzb3s3k/WXDI/h8XuZz/+E/g8XngMxDpZlNBtBc7d4fpDyBZ0X5WqWsFByjudlBNFJ/XVjxyPJ1nw3GXDllq3mzw9+q5j2FB8rUYnmPfSa7OMVes8NohJ7Gs6p8pa+csnLNjqMR8i4LT+F5s1C+Fq6c9haNkHdpT80q/cDVV09cHwwe8rbitB8BldLT3qP4LF9TrkazZ1/Qc/lk7hF8jtZAU9o3NLnEF1Taks+T95D3Eo3Q03iegrO3aKSewGOH09xrNEJWPNYb7HuXhlfp8l0mnmw4lZtD+fbuy28ZeLLgNEuHgkYoA89qOIeFRmglnlVwDg+N0Mly7lmG07wZHCAaoSU8i3AOF43QSTq40nCapUNGIwR4uivhAJoD+YJKmxJ45nAqiEYrxhP/Uu/gAyopjUfBgYDatT/z+5t18u1VV8JBNKt08ulV96hZGiOalTr59F/0mmwhGhQKhUKhUPss7/h4s6vO4Dj4EfMGx+u//y+qVhs/Ys61dD5tT9qReuNdjZDRRic7hOdy/WrVIAqq1Ug/dKvV/rrDhISsPyVj6x/8fYrqnDPGOKuKDrlGWHWj00Pq5HJTwg1Sn/NQP+wTsgQnmExqq4ap07XtbXDH4dONFvlcVQll3AkZp4xGz4VTZg41PzsO0dchLUqW7plNCVkZEhvAqdMwpPWNFvlMjbjDRzXPK4MDkdvnwhEclEME3KF6W8t0hQlTzr8TTkB4f8JIHMZRpP5XO+JGUcIz4Wl93HkUS29dLX4t58mHXhCl02eDONw8M+nkUnDEweZaNB6oFg+ux1Jwppy15bNtFs5YR53Ded8cGa+4wblJSYBvPoOCE9toUYey8jmhZ/rHGSSrPieci1xZbokHjlpr0CGEcELkwvrwAjwW/8lX+1QcSaoy07qEnOV8+eJtYiaI3iiXVAyn1pIHz+RQHiEtTZCowcu+HPxWwykTOpOvh2xyy5iccsS4iKpoJtfIhMMEhDkOI2qMczVDPVJwuLbRt78l2yXUl56qi2qLOm0xDnW4n6PwACJcejF4GGch5Q4RBk2dUAqCXrzY4lSgoswRS3QZ9c+4HCRBJ+K0lZ7bwJlCKgIjGJU51WNmp9qMi8FdyFBcbMuoLuGI1Yo9d2FjakQBdyQvyNWEQkpzyFTD4QpORKhaoNzaOqV9bePCihYEEVUTCzcODnBYOA2iFkA5I34U3FKHStc9a4ktiMDgeebzqfTmEadhw/OCFqOhhAPMWo2gAcZQbz7TYgbQcGoQbhM357aZIwxZgjODfALFP5hB5ZBwdC6ZcsfLMTWEjqrQhxO8PtfHiRk9T/gabHXNcxuhdKO6sLEfRB2YMO3LaXlUuSil2ooWpaGnKaltj/RU2spbNg+OWy6rqgt7oF49o2LZAIfJauuFTpzMIH7JQmHVcFomq4Jv1ZfhwK6HZm1qJRBXYrvOeEfEU6iOdBNr9NVUcc6pMjZR5srV1I2NPtXZa7VMQofR+3oBekCo8LqHCClNZK5oXgIiwqRb9rlpBWoydAQcz5gXe0uH8pVwPBIXGlmPF+FU492o6W0CXxKbQcTYERccQp2FtGADg4RxwoLky3VjIyzXt8Axp3kqIOT6lF1BItIknAC2XqQ7x9gLQ6sNgOWbywBHDAM5R8dyI1FMs8IqmNestjBqEQ5sl6lZKiHDbojqCrtUFmjZLbgSU1sL2UCskTkpOJ7ytAQcXcpFcsxmExEnPBPqmFLSoixn4LSTcBoE5oXulhk40FowtWpdKoTk8mHOzjIcCJrU9sZw4onAaFjEHE5VwyEmbxk4rjixqrJpi81gGpUHJ3qNdAlOisGacCCKKZOiKt9nwoHkVK+p5/WMMIXOJ21m+hdP9mKr4XiOs+A6Co47X7ovqgPA0RBnMhD9OByhN3aMeWEuVIkAuh7PZzPFjHZcDTkFZ6FDXA8OBHE4U2qFuihnwKmZvNLQDzos7s2DuE3qM3HSajhQaOeNzu0ohgP+oB0PfJEqiGW1AkdgaXCqr6XaMZw+Z5H2FhemcBQnmE1hrC7knDOTZFTGXg/OKFF5GlxWmCw4rs5dNX0hVuWJRA9bLNMGFDbmZsLJdcBaP/A8rzHjouHQcKDNqcv2qK4aA5hv5oqmgUo4ApYsm1NTygURJ9RJUniRvq6ChkTVV51zGjJtyoLnyE7Wu2XBunDK3EwgTnRkbGfmnBlls3a7A02hgAOXAk5VKZKTsNAf1aHJauSy4eQ6xGEcWjTRLQbzJrADLeTZ6AxaPZlFYGzKwZ2Yrm9gGhejk9DkHNWqqOos/EnHIZjAz9rtFtE5x4Xp6qGwagRD1DvgQHy2Lpx26jJ/InezxbmGQ7iGM+Mi8bqhvGBwbrloP32wj0vJntOtE/kDlY4Inq7DrEFI6nq/QWVO52Qi/BvaW1WnJupsoqtWlchjgjZXnRHUJZiMhG7I9M7lbkmc8WqEGjMCOQqpgymRGUg9hK5frFfdP6qbWzQu4ZlwfD95beF2fDh14uvDa52O3nR4SuaAxsgfNcTzMFvfN9JHBe2Rb+48lTu+5hrJg5NSx3l6xo5GV57C2NO4m6pN/FHfyzU6Hd0iNNTgI7M4sVhTnb2R3zHF0uvLA2FalXyikd+uLc1QNefCKMmLPxQKhUKhUCgUCoVCoVAo1I7pfxhDqpQzwKlTAAAAAElFTkSuQmCC;" vertex="1" parent="51">
                    <mxGeometry x="660" y="7" width="117.13" height="73" as="geometry"/>
                </mxCell>
            </root>
        </mxGraphModel>
    </diagram>
</mxfile>